<svg width="224" height="88" viewBox="0 0 224 88" fill="none" xmlns="http://www.w3.org/2000/svg">
<g filter="url(#filter0_d_280_522)">
<rect x="8" y="8" width="207.656" height="72" rx="21.6" fill="url(#paint0_linear_280_522)" shape-rendering="crispEdges"/>
<path fill-rule="evenodd" clip-rule="evenodd" d="M64.8893 21.0498C67.2752 19.6484 70.5712 18.8984 74.8603 18.8906H87.4922C87.7795 18.8906 87.9783 18.9827 88.1626 19.1977L88.1692 19.2053L88.1759 19.2129C88.4056 19.4701 88.5078 19.7418 88.5078 20.0703V49.3438C88.5078 49.6793 88.4009 49.9332 88.1642 50.1643C87.9176 50.3905 87.6406 50.5 87.2813 50.5H82.875C82.475 50.5 82.2037 50.3845 81.9886 50.1833C81.7874 49.9682 81.6719 49.6968 81.6719 49.2969V42.3906H63.239L61.4684 49.0499L61.466 49.0599C61.3668 49.4664 61.1511 49.8043 60.7791 50.0934C60.386 50.3834 60.0156 50.5 59.6484 50.5H55.0313C54.6402 50.5 54.5365 50.4042 54.5145 50.3785C54.4198 50.2491 54.3674 50.1531 54.3403 50.0893C54.331 50.0676 54.3257 50.0519 54.3228 50.0419C54.3362 49.8547 54.3584 49.7029 54.3854 49.5822L60.2638 27.2862L60.2642 27.2849C60.9973 24.489 62.5346 22.4328 64.8893 21.0498ZM64.4312 37.7578H81.6719V23.5234H73.9922C72.2871 23.5234 70.7584 24.0168 69.4485 25.0172C68.152 26.0036 67.2841 27.3374 66.84 28.9712L66.8397 28.9721L64.4312 37.7578ZM125.655 19.241L125.661 19.2476L125.668 19.254C125.921 19.5072 126.031 19.7776 126.031 20.1172V22.3203C126.031 22.6715 125.92 22.9459 125.679 23.1965C125.469 23.4139 125.225 23.5234 124.875 23.5234H104.047V31.1953H116.625C120.265 31.1953 123.112 32.0551 125.253 33.6862L125.257 33.6887C127.316 35.2432 128.398 37.5732 128.398 40.8594C128.398 44.127 127.318 46.4597 125.255 48.0312C123.113 49.6476 120.266 50.5 116.625 50.5H98.3203C97.9854 50.5 97.7443 50.3975 97.5341 50.1901C97.3195 49.9643 97.2109 49.7024 97.2109 49.3438V20.1172C97.2109 19.7201 97.3313 19.4501 97.5509 19.2305C97.7704 19.011 98.0405 18.8906 98.4375 18.8906H124.828C125.167 18.8906 125.422 18.9995 125.655 19.241ZM104.047 45.8672H116.625C118.098 45.8672 119.385 45.4888 120.294 44.5581C121.198 43.6318 121.563 42.328 121.563 40.8359C121.563 39.3439 121.198 38.04 120.294 37.1138C119.385 36.1831 118.098 35.8047 116.625 35.8047H104.047V45.8672ZM133.425 40.6887L133.433 40.6833L133.44 40.6777C133.87 40.3586 134.196 40.2656 134.438 40.2656H137.203C138.09 40.2656 138.934 40.7639 139.68 42.2844L139.682 42.2883C140.295 43.5218 141.173 44.483 142.32 45.1291C143.459 45.7705 144.805 46.0696 146.315 46.0781H150.984C154.029 46.0781 156.461 45.5339 158.058 44.2391C159.721 42.9028 160.501 40.6928 160.632 37.9064L160.681 36.8594H147.047C146.702 36.8594 146.431 36.7522 146.184 36.5192C145.951 36.2722 145.844 36.0013 145.844 35.6562V33.6875C145.844 33.337 145.954 33.0776 146.184 32.8477C146.437 32.5945 146.707 32.4844 147.047 32.4844H160.694L160.631 31.425C160.467 28.6756 159.687 26.4962 158.062 25.1785C156.478 23.8789 154.041 23.3359 150.984 23.3359H146.813C145.296 23.3359 143.943 23.6279 142.799 24.265C141.646 24.9071 140.764 25.8673 140.151 27.1023L140.148 27.1091L140.144 27.116C139.411 28.6517 138.575 29.1484 137.695 29.1484H134.906C134.462 29.1484 134.171 29.0022 133.935 28.7099C133.641 28.326 133.516 27.9462 133.516 27.5469C133.516 25.7802 134.103 24.2419 135.303 22.8905L135.306 22.8867C136.55 21.4711 138.095 20.4237 139.96 19.7443C141.861 19.0515 143.87 18.7031 145.992 18.7031H151.219C156.872 18.7031 160.921 20.0599 163.557 22.5956L163.561 22.5994C166.194 25.1055 167.609 29.0726 167.609 34.7188C167.609 40.3484 166.195 44.3081 163.561 46.8146L163.559 46.8165C160.923 49.3379 156.873 50.6875 151.219 50.6875H145.523C143.402 50.6875 141.385 50.3394 139.467 49.6462C137.601 48.9661 136.055 47.9255 134.812 46.5253C133.61 45.1571 133.023 43.6098 133.023 41.8438C133.023 41.1148 133.231 40.8271 133.425 40.6887Z" fill="#160C28"/>
<path fill-rule="evenodd" clip-rule="evenodd" d="M56.5723 57.2637C56.4383 57.2637 56.3836 57.2315 56.343 57.1942C56.3026 57.152 56.2734 57.1019 56.2734 56.9785V55.6934C56.2734 55.5632 56.3059 55.5146 56.3497 55.4708C56.3935 55.427 56.4421 55.3945 56.5723 55.3945H73.9219C74.052 55.3945 74.1007 55.427 74.1445 55.4708C74.1882 55.5146 74.2207 55.5632 74.2207 55.6934V56.9785C74.2207 57.1019 74.1915 57.152 74.1512 57.1942C74.1105 57.2315 74.0559 57.2637 73.9219 57.2637H66.8242V72.7422C66.8242 72.8267 66.8065 72.8674 66.7478 72.9242C66.6962 72.9739 66.6475 73 66.5391 73H63.9551C63.8539 73 63.7944 72.9767 63.7335 72.9242C63.6886 72.8756 63.6699 72.8309 63.6699 72.7422V57.2637H56.5723ZM81.6172 68.6387V72.7148C81.6172 72.8006 81.5982 72.8529 81.5273 72.9238C81.4732 72.9779 81.4286 73 81.332 73H78.7617C78.6675 73 78.6118 72.9783 78.5464 72.9172C78.4808 72.8496 78.4629 72.7979 78.4629 72.7148V55.6934C78.4629 55.596 78.486 55.5398 78.5519 55.4715C78.6089 55.4123 78.6496 55.3945 78.7344 55.3945H89.166C91.7882 55.3945 93.5684 56.0008 94.6917 57.0368C95.7996 58.0587 96.4375 59.6563 96.4375 62.0234C96.4375 64.3855 95.7999 65.9794 94.6923 66.9992C93.5691 68.0333 91.7886 68.6387 89.166 68.6387H81.6172ZM81.6172 66.7695H87.6074C89.2222 66.7695 90.6088 66.5053 91.635 65.8448L91.6418 65.8404C92.8474 65.0505 93.2832 63.6344 93.2832 62.0234C93.2832 60.4098 92.8506 58.9868 91.6386 58.2044C90.6112 57.5326 89.2228 57.2637 87.6074 57.2637H81.6172V66.7695ZM104.848 56.5966C106.153 55.83 107.994 55.399 110.454 55.3945H117.822C117.843 55.3945 117.856 55.3965 117.861 55.3976C117.866 55.3987 117.867 55.3994 117.867 55.3991C117.866 55.3987 117.867 55.399 117.871 55.4019C117.875 55.4051 117.884 55.4127 117.897 55.4281L117.904 55.4358L117.91 55.4434C117.977 55.5182 117.998 55.5784 117.998 55.666V72.7422C117.998 72.8236 117.982 72.8644 117.928 72.9181C117.864 72.9749 117.804 73 117.699 73H115.129C115.003 73 114.947 72.9715 114.907 72.937C114.872 72.8969 114.844 72.8411 114.844 72.7148V68.2695H103.354L102.238 72.4679L102.236 72.4779C102.201 72.6178 102.132 72.7345 101.988 72.8473C101.824 72.9675 101.694 73 101.58 73H98.9109L98.9151 72.979L102.342 59.9802C102.743 58.4506 103.574 57.3449 104.848 56.5966ZM103.824 66.4004H114.844V57.2637H109.947C108.867 57.2637 107.885 57.578 107.044 58.2203C106.21 58.8549 105.655 59.713 105.373 60.7473L105.373 60.7495L103.824 66.4004ZM126.96 55.4715L126.966 55.478L126.973 55.4845C127.043 55.5553 127.062 55.6076 127.062 55.6934V62.8457H138.469V55.6934C138.469 55.6076 138.488 55.5553 138.559 55.4845C138.63 55.4135 138.682 55.3945 138.768 55.3945H141.311C141.429 55.3945 141.474 55.4232 141.52 55.4715L141.527 55.478L141.533 55.4845C141.604 55.5553 141.623 55.6076 141.623 55.6934V72.7148C141.623 72.7888 141.609 72.8374 141.532 72.911C141.464 72.9769 141.408 73 141.311 73H138.768C138.663 73 138.602 72.9749 138.539 72.9181C138.485 72.8644 138.469 72.8236 138.469 72.7422V64.7148H127.062V72.7422C127.062 72.8267 127.045 72.8674 126.986 72.9242C126.934 72.9739 126.886 73 126.777 73H124.234C124.139 73 124.072 72.9771 123.993 72.9051C123.922 72.8347 123.908 72.7868 123.908 72.7148V55.6934C123.908 55.6076 123.927 55.5553 123.998 55.4845C124.059 55.4241 124.115 55.3945 124.234 55.3945H126.777C126.862 55.3945 126.903 55.4123 126.96 55.4715ZM165.464 60.6275C165.452 60.6551 165.443 60.6652 165.437 60.6704C165.244 60.8065 165.136 60.8184 165.1 60.8184H163.473C163.152 60.8184 162.788 60.6769 162.425 59.8938L162.423 59.8903C162.022 59.0329 161.459 58.3331 160.711 57.8529C159.963 57.3722 159.095 57.1543 158.154 57.1543H155.721C153.649 57.1543 151.898 57.5865 150.891 58.8009C149.937 59.9501 149.594 61.8579 149.594 64.1973C149.594 66.5386 149.938 68.4468 150.887 69.6033L150.891 69.6073C151.898 70.8217 153.649 71.2539 155.721 71.2539H158.441C159.382 71.2539 160.25 71.036 160.997 70.5543C161.743 70.073 162.302 69.3716 162.699 68.5132L162.7 68.5113C163.063 67.7216 163.431 67.5762 163.76 67.5762H165.387C165.528 67.5762 165.563 67.6094 165.607 67.6655L165.612 67.6725L165.618 67.6794C165.745 67.8387 165.781 67.9687 165.781 68.0938C165.781 69.62 165.162 70.786 163.843 71.681C162.436 72.6266 160.807 73.1094 158.92 73.1094H155.584C152.347 73.1094 150.101 72.3368 148.66 70.9669C147.245 69.6129 146.439 67.4331 146.439 64.2109C146.439 60.9787 147.245 58.7948 148.66 57.4413C150.101 56.0624 152.347 55.2852 155.584 55.2852H158.633C160.518 55.2852 162.147 55.7719 163.554 56.7261L163.556 56.7276C164.885 57.6238 165.508 58.7901 165.508 60.3145C165.508 60.4882 165.482 60.5836 165.464 60.6275Z" fill="#160C28"/>
</g>
<defs>
<filter id="filter0_d_280_522" x="0" y="0" width="223.656" height="88" filterUnits="userSpaceOnUse" color-interpolation-filters="sRGB">
<feFlood flood-opacity="0" result="BackgroundImageFix"/>
<feColorMatrix in="SourceAlpha" type="matrix" values="0 0 0 0 0 0 0 0 0 0 0 0 0 0 0 0 0 0 127 0" result="hardAlpha"/>
<feOffset/>
<feGaussianBlur stdDeviation="4"/>
<feComposite in2="hardAlpha" operator="out"/>
<feColorMatrix type="matrix" values="0 0 0 0 0.988235 0 0 0 0 0.866667 0 0 0 0 0.462745 0 0 0 1 0"/>
<feBlend mode="normal" in2="BackgroundImageFix" result="effect1_dropShadow_280_522"/>
<feBlend mode="normal" in="SourceGraphic" in2="effect1_dropShadow_280_522" result="shape"/>
</filter>
<linearGradient id="paint0_linear_280_522" x1="12.8924" y1="16" x2="205.986" y2="87.9103" gradientUnits="userSpaceOnUse">
<stop stop-color="#FDE69B"/>
<stop offset="1" stop-color="#FDEEB9"/>
</linearGradient>
</defs>
</svg>
