<svg width="30" height="30" viewBox="0 0 30 30" fill="none" xmlns="http://www.w3.org/2000/svg">
<path d="M15 12C15.8284 12 16.5 12.6716 16.5 13.5V21C16.5 21.8285 15.8284 22.5 15 22.5C14.1715 22.5 13.5 21.8285 13.5 21V13.5C13.5 12.6716 14.1715 12 15 12Z" fill="#FDE69B"/>
<path d="M15 7.5C15.8284 7.5 16.5 8.17158 16.5 9C16.5 9.82842 15.8284 10.5 15 10.5C14.1715 10.5 13.5 9.82842 13.5 9C13.5 8.17158 14.1715 7.5 15 7.5Z" fill="#FDE69B"/>
<path fill-rule="evenodd" clip-rule="evenodd" d="M0 15C0 6.71572 6.71572 0 15 0C23.2842 0 30 6.71572 30 15C30 23.2842 23.2842 30 15 30C6.71572 30 0 23.2842 0 15ZM15 3C8.37258 3 3 8.37258 3 15C3 21.6275 8.37258 27 15 27C21.6275 27 27 21.6275 27 15C27 8.37258 21.6275 3 15 3Z" fill="#FDE69B"/>
</svg>
