<svg width="23" height="23" viewBox="0 0 23 23" fill="none" xmlns="http://www.w3.org/2000/svg">
<path d="M21.7592 21.7592C21.1734 22.3449 20.2236 22.3449 19.6378 21.7592L1.25306 3.37438C0.667274 2.78859 0.667274 1.83885 1.25306 1.25306C1.83885 0.667274 2.78859 0.667274 3.37438 1.25306L21.7592 19.6378C22.3449 20.2236 22.3449 21.1734 21.7592 21.7592Z" fill="url(#paint0_linear_678_629)"/>
<path d="M1.25306 21.7592C0.667274 21.1734 0.667274 20.2236 1.25306 19.6378L19.6378 1.25306C20.2236 0.667274 21.1734 0.667274 21.7592 1.25306C22.3449 1.83885 22.3449 2.78859 21.7592 3.37438L3.37438 21.7592C2.78859 22.3449 1.83885 22.3449 1.25306 21.7592Z" fill="url(#paint1_linear_678_629)"/>
<defs>
<linearGradient id="paint0_linear_678_629" x1="0.81372" y1="1.24142" x2="21.2919" y2="23.4617" gradientUnits="userSpaceOnUse">
<stop stop-color="#FDE69B"/>
<stop offset="1" stop-color="#FDEEB9"/>
</linearGradient>
<linearGradient id="paint1_linear_678_629" x1="0.81372" y1="1.24142" x2="21.2919" y2="23.4617" gradientUnits="userSpaceOnUse">
<stop stop-color="#FDE69B"/>
<stop offset="1" stop-color="#FDEEB9"/>
</linearGradient>
</defs>
</svg>
