<svg width="30" height="30" viewBox="0 0 30 30" fill="none" xmlns="http://www.w3.org/2000/svg">
<path fill-rule="evenodd" clip-rule="evenodd" d="M10.3154 3.66939C9.3555 2.96248 8.70911 2.80288 8.36228 2.87051C6.93141 3.14949 6.08323 3.70597 4.93408 4.85403C3.3655 6.4211 2.60441 7.59123 2.93589 9.36536C3.31754 11.408 5.18205 14.5254 10.321 19.6597C15.4597 24.7934 18.5989 26.6759 20.655 27.0651C21.6077 27.2455 22.3333 27.1045 22.9843 26.7841C23.6804 26.4416 24.3507 25.8651 25.1194 25.0635C25.8012 24.3527 26.2149 23.8565 26.5044 23.3684C26.7803 22.9034 26.9758 22.3893 27.1268 21.617C27.1945 21.2705 27.0348 20.6247 26.3271 19.6656C25.667 18.7711 24.7358 17.8828 23.8749 17.1576C23.3069 16.679 22.428 16.6485 21.718 17.1795L19.5483 18.8024C17.591 20.2661 14.8562 20.0565 13.1294 18.3312L11.6507 16.8539C9.92391 15.1288 9.71404 12.3966 11.1792 10.4412L12.8035 8.27346C13.3349 7.56415 13.3044 6.68609 12.8253 6.11855C12.0996 5.25869 11.2105 4.32864 10.3154 3.66939ZM12.0113 1.37093C13.168 2.22283 14.2241 3.34628 15.0104 4.27777C16.4435 5.97565 16.3266 8.3364 15.0916 9.98469L13.4673 12.1524C12.8621 12.9599 12.9404 14.1041 13.6716 14.8348L15.1504 16.3121C15.8818 17.0428 17.027 17.1209 17.8354 16.5164L20.0052 14.8937C21.655 13.6598 24.0179 13.5429 25.7173 14.9745C26.6499 15.76 27.7747 16.8152 28.6276 17.9711C29.4328 19.0624 30.2429 20.5735 29.9319 22.1645C29.7322 23.1861 29.4388 24.0223 28.9633 24.824C28.5016 25.6026 27.9017 26.29 27.1831 27.0391C26.3505 27.9073 25.4012 28.7779 24.2472 29.3457C23.0484 29.9357 21.6935 30.1681 20.1226 29.8707C17.1316 29.3043 13.452 26.8258 8.30001 21.6788C3.14846 16.532 0.683494 12.8716 0.126269 9.88932C-0.481104 6.63853 1.20961 4.53674 2.91307 2.8349C4.32012 1.42918 5.65432 0.489152 7.81482 0.067914C9.40699 -0.242518 10.9193 0.566692 12.0113 1.37093Z" fill="#FDE69B"/>
</svg>
