<svg width="19" height="28" viewBox="0 0 19 28" fill="none" xmlns="http://www.w3.org/2000/svg">
<path d="M1.79104 28C0.801878 28 0 27.1981 0 26.209V2C0 0.895431 0.895431 0 2 0H17.0892C17.9604 0 18.6667 0.706255 18.6667 1.57746V1.57746C18.6667 2.44867 17.9604 3.15493 17.0892 3.15493H5.58209C4.47752 3.15493 3.58209 4.05036 3.58209 5.15493V10.5014C3.58209 11.606 4.47752 12.5014 5.58209 12.5014H14.7997C15.6165 12.5014 16.2786 13.1635 16.2786 13.9803V13.9803C16.2786 14.797 15.6165 15.4592 14.7997 15.4592H5.58209C4.47752 15.4592 3.58209 16.3546 3.58209 17.4592V26.209C3.58209 27.1981 2.78021 28 1.79104 28V28Z" fill="#FDE69B"/>
</svg>
