<svg width="271" height="271" viewBox="0 0 271 271" fill="none" xmlns="http://www.w3.org/2000/svg">
<path d="M188.827 158.763C185.942 157.281 171.571 150.241 168.899 149.288C166.226 148.283 164.267 147.806 162.335 150.77C160.377 153.708 154.819 160.245 153.073 162.23C151.379 164.188 149.659 164.426 146.774 162.971C129.625 154.396 118.377 147.674 107.077 128.275C104.086 123.114 110.067 123.485 115.651 112.343C116.604 110.385 116.128 108.718 115.387 107.236C114.646 105.754 108.823 91.4096 106.389 85.5608C104.033 79.8709 101.598 80.6648 99.8253 80.559C98.1315 80.4531 96.1996 80.4531 94.2412 80.4531C92.2828 80.4531 89.1335 81.1941 86.4605 84.0788C83.7876 87.0164 76.2451 94.0825 76.2451 108.426C76.2451 122.77 86.6987 136.664 88.1278 138.623C89.6099 140.581 108.691 170.01 137.988 182.687C156.513 190.679 163.764 191.367 173.027 189.991C178.664 189.144 190.282 182.951 192.69 176.097C195.099 169.269 195.099 163.42 194.384 162.203C193.67 160.906 191.711 160.165 188.827 158.763Z" fill="#4CAF50"/>
<path d="M244.853 89.557C238.872 75.3454 230.297 62.5894 219.367 51.6329C208.437 40.7029 195.681 32.1019 181.443 26.1473C166.887 20.0339 151.432 16.9375 135.5 16.9375H134.971C118.933 17.0169 103.398 20.1927 88.7896 26.4384C74.6838 32.4724 62.0336 41.047 51.2095 51.9769C40.3854 62.9069 31.8902 75.6101 26.015 89.7687C19.9281 104.43 16.8581 120.018 16.9375 136.056C17.0169 154.422 21.4101 172.657 29.6407 188.959V229.186C29.6407 235.908 35.0924 241.359 41.8145 241.359H82.0675C98.3699 249.59 116.604 253.983 134.971 254.062H135.527C151.379 254.062 166.755 250.993 181.231 244.985C195.39 239.083 208.12 230.615 219.023 219.791C229.953 208.966 238.554 196.316 244.562 182.21C250.807 167.602 253.983 152.067 254.063 136.029C254.142 119.912 251.019 104.271 244.853 89.557ZM204.864 205.473C186.313 223.84 161.7 233.949 135.5 233.949H135.05C119.092 233.87 103.239 229.9 89.2395 222.437L87.0164 221.246H49.7539V183.984L48.563 181.761C41.0999 167.761 37.1302 151.908 37.0508 135.95C36.945 109.564 47.0281 84.7934 65.527 66.1356C83.9995 47.4779 108.691 37.1566 135.077 37.0508H135.527C148.759 37.0508 161.594 39.6179 173.689 44.6991C185.492 49.648 196.078 56.7671 205.182 65.871C214.259 74.9484 221.405 85.5608 226.354 97.3641C231.488 109.591 234.055 122.559 234.002 135.95C233.843 162.309 223.496 187.001 204.864 205.473Z" fill="#4CAF50"/>
</svg>
