<svg width="115" height="40" viewBox="0 0 115 40" fill="none" xmlns="http://www.w3.org/2000/svg">
<rect width="114.894" height="40" fill="url(#paint0_linear_650_627)"/>
<path fill-rule="evenodd" clip-rule="evenodd" d="M31.4762 7.24986C32.7963 6.47131 34.6199 6.05463 36.9931 6.05033H43.9821C44.1411 6.05033 44.2511 6.10146 44.3531 6.22091L44.3567 6.22518L44.3605 6.22937C44.4875 6.37225 44.5441 6.52319 44.5441 6.70572V22.9687C44.5441 23.1551 44.4849 23.2962 44.3539 23.4246C44.2175 23.5503 44.0643 23.6111 43.8654 23.6111H41.4275C41.2062 23.6111 41.0561 23.5469 40.9371 23.4351C40.8257 23.3157 40.7618 23.1649 40.7618 22.9427V19.1059H30.5631L29.5835 22.8055L29.5822 22.8111C29.5273 23.0369 29.4079 23.2246 29.2021 23.3852C28.9846 23.5463 28.7796 23.6111 28.5765 23.6111H26.0219C25.8055 23.6111 25.7481 23.5579 25.736 23.5436C25.6836 23.4717 25.6546 23.4184 25.6396 23.3829C25.6345 23.3709 25.6315 23.3622 25.6299 23.3566C25.6373 23.2526 25.6496 23.1683 25.6645 23.1012L28.917 10.7145L28.9172 10.7138C29.3228 9.16054 30.1734 8.01819 31.4762 7.24986ZM31.2227 16.5321H40.7618V8.62412H36.5128C35.5694 8.62412 34.7236 8.89822 33.9988 9.45398C33.2814 10.002 32.8013 10.743 32.5555 11.6506L32.5554 11.6512L31.2227 16.5321ZM65.0973 6.24499L65.1008 6.24863L65.1043 6.2522C65.2444 6.39286 65.3054 6.54308 65.3054 6.73176V7.95572C65.3054 8.15084 65.2439 8.30328 65.1102 8.44248C64.9944 8.56326 64.8592 8.62412 64.6656 8.62412H53.1417V12.8863H60.101C62.1149 12.8863 63.6901 13.3639 64.875 14.2701L64.8769 14.2715C66.0161 15.1351 66.6151 16.4295 66.6151 18.2552C66.6151 20.0706 66.017 21.3665 64.876 22.2395C63.691 23.1375 62.1154 23.6111 60.101 23.6111H49.9732C49.7879 23.6111 49.6545 23.5542 49.5382 23.4389C49.4195 23.3135 49.3594 23.168 49.3594 22.9687V6.73176C49.3594 6.51118 49.426 6.36116 49.5475 6.23918C49.669 6.11719 49.8184 6.05033 50.0381 6.05033H64.6397C64.8271 6.05033 64.9684 6.11085 65.0973 6.24499ZM53.1417 21.0373H60.101C60.9158 21.0373 61.6278 20.8271 62.1307 20.3101C62.6313 19.7955 62.8328 19.0711 62.8328 18.2422C62.8328 17.4132 62.6313 16.6889 62.1307 16.1743C61.6278 15.6573 60.9158 15.447 60.101 15.447H53.1417V21.0373ZM69.3962 18.1604L69.4004 18.1574L69.4046 18.1543C69.6422 17.977 69.8231 17.9253 69.9564 17.9253H71.4866C71.9774 17.9253 72.4443 18.2022 72.8573 19.0469L72.8584 19.0491C73.1971 19.7343 73.6829 20.2683 74.3176 20.6273C74.9477 20.9836 75.6927 21.1498 76.5279 21.1545H79.1116C80.7961 21.1545 82.1418 20.8522 83.0252 20.1328C83.9458 19.3904 84.3768 18.1626 84.4494 16.6146L84.4766 16.033H76.9331C76.7421 16.033 76.5922 15.9734 76.4555 15.844C76.3267 15.7068 76.2674 15.5563 76.2674 15.3646V14.2708C76.2674 14.0761 76.3283 13.932 76.4554 13.8043C76.5955 13.6636 76.7451 13.6024 76.9331 13.6024H84.4839L84.449 13.0139C84.3585 11.4864 83.9269 10.2757 83.0276 9.54358C82.1513 8.82159 80.8029 8.51995 79.1116 8.51995H76.8034C75.9642 8.51995 75.2155 8.68214 74.5825 9.03611C73.9446 9.39281 73.4569 9.92625 73.1177 10.6124L73.1158 10.6162L73.114 10.62C72.7083 11.4731 72.2455 11.7491 71.7589 11.7491H70.2158C69.9699 11.7491 69.8089 11.6679 69.6782 11.5055C69.5155 11.2922 69.4464 11.0812 69.4464 10.8594C69.4464 9.87787 69.7712 9.02327 70.435 8.27246L70.4369 8.27036C71.1252 7.48393 71.9799 6.90206 73.0117 6.52458C74.0637 6.13972 75.1751 5.94617 76.3495 5.94617H79.2413C82.3691 5.94617 84.6096 6.69993 86.0677 8.10866L86.0699 8.11077C87.527 9.50307 88.31 11.707 88.31 14.8437C88.31 17.9713 87.5273 20.1711 86.0699 21.5637L86.0688 21.5647C84.6108 22.9655 82.3698 23.7153 79.2413 23.7153H76.0902C74.9162 23.7153 73.8003 23.5218 72.7392 23.1368C71.7065 22.759 70.8516 22.1808 70.1636 21.403C69.4987 20.6428 69.174 19.7832 69.174 18.8021C69.174 18.3971 69.2891 18.2372 69.3962 18.1604Z" fill="#160C28"/>
<path fill-rule="evenodd" clip-rule="evenodd" d="M26.8744 27.3687C26.8003 27.3687 26.7701 27.3509 26.7476 27.3301C26.7253 27.3067 26.7091 27.2788 26.7091 27.2103V26.4963C26.7091 26.424 26.7271 26.397 26.7513 26.3727C26.7755 26.3483 26.8025 26.3303 26.8744 26.3303H36.4738C36.5458 26.3303 36.5727 26.3483 36.5969 26.3727C36.6212 26.397 36.6391 26.424 36.6391 26.4963V27.2103C36.6391 27.2788 36.623 27.3067 36.6006 27.3301C36.5782 27.3509 36.5479 27.3687 36.4738 27.3687H32.5467V35.9679C32.5467 36.0148 32.5369 36.0374 32.5044 36.069C32.4759 36.0966 32.4489 36.1111 32.389 36.1111H30.9593C30.9033 36.1111 30.8704 36.0982 30.8366 36.069C30.8118 36.042 30.8015 36.0171 30.8015 35.9679V27.3687H26.8744ZM40.7315 33.6882V35.9527C40.7315 36.0003 40.721 36.0294 40.6818 36.0688C40.6518 36.0988 40.6272 36.1111 40.5737 36.1111H39.1516C39.0995 36.1111 39.0686 36.0991 39.0325 36.0651C38.9962 36.0276 38.9863 35.9988 38.9863 35.9527V26.4963C38.9863 26.4422 38.9991 26.411 39.0355 26.373C39.0671 26.3402 39.0896 26.3303 39.1365 26.3303H44.9082C46.359 26.3303 47.344 26.6671 47.9654 27.2427C48.5785 27.8104 48.9314 28.698 48.9314 30.013C48.9314 31.3253 48.5786 32.2108 47.9658 32.7773C47.3443 33.3518 46.3592 33.6882 44.9082 33.6882H40.7315ZM40.7315 32.6497H44.0458C44.9393 32.6497 45.7065 32.5029 46.2742 32.136L46.278 32.1335C46.9451 31.6947 47.1862 30.908 47.1862 30.013C47.1862 29.1165 46.9468 28.326 46.2762 27.8914C45.7078 27.5181 44.9396 27.3687 44.0458 27.3687H40.7315V32.6497ZM53.585 26.9981C54.3071 26.5722 55.3257 26.3328 56.6866 26.3303H60.7633C60.775 26.3303 60.7818 26.3314 60.7848 26.332C60.7876 26.3326 60.7883 26.333 60.7878 26.3328C60.7874 26.3326 60.788 26.3328 60.7901 26.3344C60.7924 26.3361 60.7974 26.3404 60.8047 26.349L60.8083 26.3532L60.8121 26.3574C60.8491 26.399 60.8606 26.4324 60.8606 26.4811V35.9679C60.8606 36.0131 60.8515 36.0358 60.8218 36.0656C60.7867 36.0972 60.7534 36.1111 60.6953 36.1111H59.2731C59.2033 36.1111 59.1724 36.0953 59.1502 36.0761C59.1312 36.0539 59.1154 36.0228 59.1154 35.9527V33.4831H52.7583L52.1407 35.8155L52.1394 35.8211C52.1205 35.8988 52.082 35.9636 52.0024 36.0263C51.9115 36.0931 51.8397 36.1111 51.7767 36.1111H50.2999L50.3022 36.0995L52.1985 28.8779C52.4204 28.0281 52.8801 27.4138 53.585 26.9981ZM53.0181 32.4447H59.1154V27.3687H56.4062C55.8086 27.3687 55.2654 27.5433 54.8 27.9002C54.3385 28.2527 54.0313 28.7295 53.8756 29.3041L53.8752 29.3053L53.0181 32.4447ZM65.8191 26.373L65.8226 26.3767L65.8261 26.3803C65.8653 26.4196 65.8759 26.4487 65.8759 26.4963V30.4698H72.1868V26.4963C72.1868 26.4487 72.1973 26.4196 72.2365 26.3803C72.2758 26.3409 72.3047 26.3303 72.3521 26.3303H73.7591C73.8247 26.3303 73.8495 26.3462 73.8752 26.373L73.8787 26.3767L73.8823 26.3803C73.9215 26.4196 73.932 26.4487 73.932 26.4963V35.9527C73.932 35.9938 73.924 36.0208 73.8819 36.0617C73.8441 36.0983 73.813 36.1111 73.7591 36.1111H72.3521C72.294 36.1111 72.2607 36.0972 72.2256 36.0656C72.1959 36.0358 72.1868 36.0131 72.1868 35.9679V31.5082H65.8759V35.9679C65.8759 36.0148 65.8661 36.0374 65.8336 36.069C65.805 36.0966 65.7781 36.1111 65.7181 36.1111H64.3111C64.2583 36.1111 64.2214 36.0984 64.1774 36.0584C64.1382 36.0193 64.1306 35.9927 64.1306 35.9527V26.4963C64.1306 26.4487 64.1411 26.4196 64.1804 26.3803C64.2138 26.3467 64.2453 26.3303 64.3111 26.3303H65.7181C65.765 26.3303 65.7875 26.3402 65.8191 26.373ZM87.1227 29.2375C87.1164 29.2528 87.1116 29.2584 87.1083 29.2613C87.001 29.337 86.9416 29.3435 86.9213 29.3435H86.0212C85.8438 29.3435 85.6423 29.265 85.4414 28.8299L85.4405 28.828C85.2183 28.3516 84.907 27.9628 84.4933 27.6961C84.0792 27.429 83.5993 27.3079 83.0786 27.3079H81.7321C80.586 27.3079 79.6172 27.5481 79.0597 28.2227C78.532 28.8612 78.3421 29.921 78.3421 31.2207C78.3421 32.5214 78.5324 33.5815 79.0578 34.2241L79.0597 34.2263C79.6172 34.9009 80.586 35.1411 81.7321 35.1411H83.2374C83.758 35.1411 84.2378 35.02 84.6512 34.7524C85.0641 34.485 85.3736 34.0953 85.593 33.6184L85.5935 33.6174C85.7942 33.1786 85.9979 33.0979 86.18 33.0979H87.0802C87.1583 33.0979 87.1779 33.1163 87.2019 33.1475L87.2049 33.1514L87.2079 33.1552C87.2784 33.2437 87.2985 33.3159 87.2985 33.3854C87.2985 34.2333 86.9556 34.8811 86.2259 35.3783C85.4475 35.9036 84.5461 36.1719 83.5022 36.1719H81.6565C79.8654 36.1719 78.6227 35.7427 77.8255 34.9816C77.0425 34.2294 76.5969 33.0184 76.5969 31.2283C76.5969 29.4326 77.0428 28.2194 77.8255 27.4674C78.6228 26.7013 79.8653 26.2695 81.6565 26.2695H83.3433C84.3866 26.2695 85.2877 26.54 86.0662 27.07L86.0674 27.0709C86.8028 27.5688 87.1472 28.2167 87.1472 29.0636C87.1472 29.1601 87.1327 29.2131 87.1227 29.2375Z" fill="#160C28"/>
<defs>
<linearGradient id="paint0_linear_650_627" x1="2.70692" y1="4.44445" x2="109.649" y2="44.1086" gradientUnits="userSpaceOnUse">
<stop stop-color="#FDE69B"/>
<stop offset="1" stop-color="#FDEEB9"/>
</linearGradient>
</defs>
</svg>
