<svg width="21" height="21" viewBox="0 0 21 21" fill="none" xmlns="http://www.w3.org/2000/svg">
<path fill-rule="evenodd" clip-rule="evenodd" d="M14.0948 3.84369C13.9725 3.83407 13.8194 3.83342 13.4167 3.83342H9.70835C8.50793 3.83342 7.65856 3.83409 6.99494 3.8892C6.34131 3.94348 5.94287 4.04624 5.6301 4.20871C5.02129 4.52496 4.52489 5.02136 4.20864 5.63017C4.04617 5.94293 3.94341 6.34137 3.88914 6.99501C3.83402 7.65863 3.83335 8.50799 3.83335 9.70841V14.2501C3.83335 15.8609 5.13919 17.1667 6.75002 17.1667H8.87968C9.31435 17.1667 9.66668 16.8144 9.66668 16.3797V15.9167C9.66668 13.3854 11.7187 11.3334 14.25 11.3334C15.8608 11.3334 17.1667 10.0276 17.1667 8.41675V7.58341C17.1667 7.18065 17.166 7.02756 17.1564 6.90522C17.0278 5.27063 15.7294 3.97234 14.0948 3.84369ZM18.8333 10.2004C18.8333 10.7011 18.8333 10.9992 18.8112 11.2873C18.6708 13.1073 17.8717 14.8137 16.5633 16.0865C16.3563 16.288 16.1272 16.4789 15.7425 16.7994L15.691 16.8423C15.3909 17.0924 15.2121 17.2414 15.0275 17.3771C13.8658 18.2308 12.4826 18.7316 11.0437 18.8195C10.815 18.8334 10.5822 18.8334 10.1917 18.8334H6.75002C4.21871 18.8334 2.16669 16.7814 2.16669 14.2501V9.67133C2.16668 8.51632 2.16668 7.59776 2.22819 6.85708C2.29118 6.09852 2.42298 5.45219 2.72962 4.86188C3.204 3.94867 3.94859 3.20407 4.86181 2.72968C5.45213 2.42304 6.09844 2.29125 6.85701 2.22825C7.59769 2.16674 8.51626 2.16675 9.67127 2.16675H13.4582C13.8054 2.16672 14.0293 2.16672 14.2257 2.18217C16.6775 2.37513 18.6249 4.32257 18.8179 6.77446C18.8333 6.97082 18.8333 7.19472 18.8333 7.54193V10.2004ZM11.2157 17.1327C12.236 17.022 13.2109 16.6437 14.0406 16.0341C14.1793 15.9322 14.3174 15.8175 14.6464 15.5433C15.0687 15.1914 15.2456 15.0432 15.4012 14.8919C16.1941 14.1205 16.7466 13.1443 17.0035 12.0812C16.2368 12.6581 15.2833 13.0001 14.25 13.0001C12.6392 13.0001 11.3334 14.3059 11.3334 15.9167V16.3797C11.3334 16.6424 11.2921 16.8954 11.2157 17.1327Z" fill="#FDE69B"/>
</svg>
