<svg width="22" height="28" viewBox="0 0 22 28" fill="none" xmlns="http://www.w3.org/2000/svg">
<path d="M21.493 20.7831C21.493 22.2291 21.1249 23.4911 20.3887 24.569C19.6526 25.6469 18.6535 26.4883 17.3915 27.093C16.1559 27.6977 14.7887 28 13.2901 28H1C0.447716 28 0 27.5523 0 27V1C0 0.447715 0.447715 0 1 0H13.9211C15.2357 0 16.3662 0.35493 17.3127 1.06479C18.2854 1.74836 19.0216 2.64225 19.5211 3.74648C20.0469 4.82441 20.3099 5.95493 20.3099 7.13803C20.3099 8.50516 19.9549 9.79343 19.2451 11.0028C19.0184 11.3951 18.7586 11.7541 18.4655 12.0799C17.8446 12.7699 17.9548 14.28 18.6902 14.8465C19.2149 15.2508 19.6759 15.7311 20.0732 16.2873C21.0197 17.5493 21.493 19.0479 21.493 20.7831ZM17.9042 20.1521C17.9042 19.2845 17.707 18.4826 17.3127 17.7465C16.9446 17.0103 16.4319 16.4188 15.7746 15.9718C15.1437 15.5249 14.4075 15.3014 13.5662 15.3014H4.5493C3.99701 15.3014 3.5493 15.7491 3.5493 16.3014V23.9239C3.5493 24.4762 3.99701 24.9239 4.5493 24.9239H13.2901C14.1577 24.9239 14.9333 24.7005 15.6169 24.2535C16.3268 23.8066 16.8789 23.2282 17.2732 22.5183C17.6939 21.7822 17.9042 20.9934 17.9042 20.1521ZM4.5493 3.07606C3.99701 3.07606 3.5493 3.52377 3.5493 4.07606V11.4225C3.5493 11.9748 3.99701 12.4225 4.5493 12.4225H12.462C13.3033 12.4225 14.0394 12.2122 14.6704 11.7915C15.3277 11.3709 15.8404 10.8056 16.2085 10.0958C16.6028 9.38591 16.8 8.61033 16.8 7.76901C16.8 6.87512 16.616 6.08638 16.2479 5.40282C15.9061 4.69296 15.4197 4.1277 14.7887 3.70704C14.184 3.28638 13.4873 3.07606 12.6986 3.07606H4.5493Z" fill="#FDE69B"/>
</svg>
