<svg width="25" height="28" viewBox="0 0 25 28" fill="none" xmlns="http://www.w3.org/2000/svg">
<path d="M7.32258 28C6.7703 28 6.32258 27.5523 6.32258 27V26.0154C6.32258 25.4631 6.7703 25.0154 7.32258 25.0154H8.08976C8.74427 25.0154 9.22861 24.8583 9.54278 24.5442C9.88312 24.2038 10.2366 23.7064 10.6031 23.0519L11.4094 21.3153C11.5443 21.0247 11.5318 20.6871 11.3758 20.4073L0.828856 1.4869C0.457293 0.820346 0.939193 0 1.70231 0H3.29243C3.65929 0 3.9967 0.200881 4.17155 0.523394L12.2774 15.4749C12.6708 16.2006 13.7243 16.1641 14.0665 15.4129L20.8217 0.585416C20.9841 0.228844 21.3398 0 21.7317 0H23.2511C23.9822 0 24.4662 0.758832 24.1579 1.4217L13.3128 24.7405C12.7368 25.9187 12.1216 26.7564 11.467 27.2539C10.8387 27.7513 9.96166 28 8.8359 28H7.32258Z" fill="#FDE69B"/>
</svg>
