<svg width="29" height="30" viewBox="0 0 29 30" fill="none" xmlns="http://www.w3.org/2000/svg">
<path fill-rule="evenodd" clip-rule="evenodd" d="M14.4621 2.86983C14.2052 2.79501 13.9323 2.79501 13.6753 2.86983C13.6014 2.89137 13.4714 2.94525 13.195 3.15455C12.9043 3.37467 12.5484 3.68969 11.9938 4.18267L4.62232 10.735C3.71862 11.5383 3.46243 11.7806 3.28433 12.0485C3.113 12.3062 2.98537 12.5904 2.90657 12.8896C2.82465 13.2008 2.81382 13.5531 2.81382 14.7623V21.798C2.81382 23.0234 2.81496 23.8564 2.86839 24.4999C2.92043 25.1266 3.01472 25.4466 3.13061 25.6695C3.39756 26.1835 3.81658 26.6026 4.33049 26.8695C4.55358 26.9854 4.87349 27.0796 5.50016 27.1317C6.14365 27.1852 6.97669 27.1863 8.20209 27.1863H8.44125V22.9657C8.44125 19.8578 10.9607 17.3383 14.0688 17.3383C17.1767 17.3383 19.6962 19.8578 19.6962 22.9657V27.1863H19.9354C21.1607 27.1863 21.9937 27.1852 22.6372 27.1317C23.2639 27.0796 23.5838 26.9854 23.8069 26.8695C24.3208 26.6026 24.7398 26.1835 25.0068 25.6695C25.1227 25.4466 25.217 25.1266 25.2691 24.4999C25.3224 23.8564 25.3236 23.0234 25.3236 21.798V14.7623C25.3236 13.5531 25.3128 13.2008 25.2308 12.8896C25.152 12.5904 25.0244 12.3062 24.853 12.0485C24.6749 11.7806 24.4187 11.5383 23.5151 10.735L16.1436 4.18267C15.589 3.68969 15.2331 3.37467 14.9424 3.15455C14.666 2.94525 14.536 2.89137 14.4621 2.86983ZM12.8885 0.168338C13.6594 -0.0561126 14.478 -0.0561126 15.2488 0.168338C15.7836 0.324091 16.227 0.597979 16.6408 0.911258C17.0305 1.2063 17.4694 1.59641 17.9748 2.04564L25.3844 8.63204C25.4244 8.6675 25.4636 8.70247 25.5026 8.737C26.2366 9.38868 26.7909 9.881 27.1963 10.4908C27.5389 11.0062 27.7942 11.5747 27.9518 12.1733C28.1382 12.8813 28.1379 13.6228 28.1374 14.6042C28.1374 14.6562 28.1374 14.7088 28.1374 14.7623V21.8571C28.1374 23.0086 28.1374 23.9591 28.0731 24.7329C28.0064 25.5366 27.863 26.2751 27.5037 26.9667C26.9698 27.9945 26.1317 28.8324 25.104 29.3663C24.4123 29.7257 23.674 29.869 22.8701 29.9357C22.0963 30 21.146 30 19.9943 30H19.4219C19.4109 30 19.3999 30 19.3887 30C19.2183 30 19.0149 30.0001 18.8356 29.9852C18.6278 29.9681 18.3304 29.9237 18.0199 29.7624C17.6345 29.5622 17.3202 29.2479 17.12 28.8626C16.9587 28.5519 16.9144 28.2545 16.8971 28.0467C16.8822 27.8676 16.8823 27.664 16.8823 27.4937L16.8825 22.9657C16.8825 21.4117 15.6226 20.152 14.0688 20.152C12.5147 20.152 11.255 21.4117 11.255 22.9657L11.255 27.4937C11.255 27.664 11.2552 27.8676 11.2403 28.0467C11.223 28.2545 11.1787 28.5519 11.0174 28.8626C10.8172 29.2479 10.5029 29.5622 10.1175 29.7624C9.80696 29.9237 9.50954 29.9681 9.30176 29.9852C9.12257 30.0001 8.91908 30 8.74868 30C8.73751 30 8.72647 30 8.71559 30H8.14304C6.99147 30 6.04107 30 5.26728 29.9357C4.46347 29.869 3.72509 29.7257 3.03343 29.3663C2.00562 28.8324 1.16758 27.9945 0.633675 26.9667C0.274391 26.2751 0.131075 25.5366 0.0643191 24.7329C6.77779e-05 23.9591 8.20099e-05 23.0086 9.60785e-05 21.8571V14.7623C9.60785e-05 14.7088 6.7884e-05 14.6562 5.38154e-05 14.6042C-0.000466723 13.6228 -0.000846669 12.8813 0.18559 12.1733C0.343201 11.5747 0.598476 11.0062 0.94113 10.4908C1.34647 9.881 1.9009 9.38868 2.63482 8.73701C2.67371 8.70247 2.71308 8.6675 2.75298 8.63204L10.1627 2.04565C10.668 1.59641 11.1069 1.2063 11.4966 0.911258C11.9104 0.597979 12.3538 0.324091 12.8885 0.168338Z" fill="#FDE69B"/>
</svg>
