<svg width="25" height="28" viewBox="0 0 16 20" fill="none" xmlns="http://www.w3.org/2000/svg">
<path d="M1.43102 0.120117C1.75081 0.120117 2.05131 0.273066 2.23951 0.531618L7.12349 7.24138C7.52286 7.79005 8.34111 7.79005 8.74048 7.24138L13.6245 0.531618C13.8127 0.273065 14.1132 0.120117 14.433 0.120117H14.7742C15.5941 0.120117 16.0656 1.05262 15.5795 1.71293L9.76782 9.60804C9.50853 9.96028 9.50825 10.4402 9.76712 10.7927L15.3591 18.4083C15.8441 19.0687 15.3725 20.0001 14.5531 20.0001H14.21C13.8896 20.0001 13.5886 19.8466 13.4005 19.5873L8.74146 13.1641C8.34218 12.6136 7.52179 12.6136 7.12251 13.1641L2.46344 19.5873C2.27533 19.8466 1.97435 20.0001 1.65397 20.0001H1.2829C0.46352 20.0001 -0.00809692 19.0687 0.476866 18.4083L6.06885 10.7927C6.32772 10.4402 6.32744 9.96028 6.06815 9.60804L0.256474 1.71293C-0.229594 1.05261 0.241883 0.120117 1.06181 0.120117H1.43102Z" fill="#FDE69B"/>
</svg>
