<svg width="1023" height="1023" viewBox="0 0 1023 1023" fill="none" xmlns="http://www.w3.org/2000/svg">
<g clip-path="url(#clip0_810_2029)">
<path d="M248 15.5C248 24.0604 254.94 31 263.5 31C272.06 31 279 24.0604 279 15.5C279 6.93959 272.06 0 263.5 0C254.94 0 248 6.93959 248 15.5Z" fill="#FEF9E6"/>
<path d="M279 15.5C279 24.0604 285.94 31 294.5 31C303.06 31 310 24.0604 310 15.5C310 6.93959 303.06 0 294.5 0C285.94 0 279 6.93959 279 15.5Z" fill="#FEF9E6"/>
<path d="M310 15.5C310 24.0604 316.94 31 325.5 31C334.06 31 341 24.0604 341 15.5C341 6.93959 334.06 0 325.5 0C316.94 0 310 6.93959 310 15.5Z" fill="#FEF9E6"/>
<path d="M403 15.5C403 24.0604 409.94 31 418.5 31C427.06 31 434 24.0604 434 15.5C434 6.93959 427.06 0 418.5 0C409.94 0 403 6.93959 403 15.5Z" fill="#FEF9E6"/>
<path d="M465 15.5C465 24.0604 471.94 31 480.5 31C489.06 31 496 24.0604 496 15.5C496 6.93959 489.06 0 480.5 0C471.94 0 465 6.93959 465 15.5Z" fill="#FEF9E6"/>
<path d="M496 15.5C496 24.0604 502.94 31 511.5 31C520.06 31 527 24.0604 527 15.5C527 6.93959 520.06 0 511.5 0C502.94 0 496 6.93959 496 15.5Z" fill="#FEF9E6"/>
<path d="M527 15.5C527 24.0604 533.94 31 542.5 31C551.06 31 558 24.0604 558 15.5C558 6.93959 551.06 0 542.5 0C533.94 0 527 6.93959 527 15.5Z" fill="#FEF9E6"/>
<path d="M651 15.5C651 24.0604 657.94 31 666.5 31C675.06 31 682 24.0604 682 15.5C682 6.93959 675.06 0 666.5 0C657.94 0 651 6.93959 651 15.5Z" fill="#FEF9E6"/>
<path d="M713 15.5C713 24.0604 719.94 31 728.5 31C737.06 31 744 24.0604 744 15.5C744 6.93959 737.06 0 728.5 0C719.94 0 713 6.93959 713 15.5Z" fill="#FEF9E6"/>
<path d="M744 15.5C744 24.0604 750.94 31 759.5 31C768.06 31 775 24.0604 775 15.5C775 6.93959 768.06 0 759.5 0C750.94 0 744 6.93959 744 15.5Z" fill="#FEF9E6"/>
<path d="M248 46.5C248 55.0604 254.94 62 263.5 62C272.06 62 279 55.0604 279 46.5C279 37.9396 272.06 31 263.5 31C254.94 31 248 37.9396 248 46.5Z" fill="#FEF9E6"/>
<path d="M279 46.5C279 55.0604 285.94 62 294.5 62C303.06 62 310 55.0604 310 46.5C310 37.9396 303.06 31 294.5 31C285.94 31 279 37.9396 279 46.5Z" fill="#FEF9E6"/>
<path d="M372 46.5C372 55.0604 378.94 62 387.5 62C396.06 62 403 55.0604 403 46.5C403 37.9396 396.06 31 387.5 31C378.94 31 372 37.9396 372 46.5Z" fill="#FEF9E6"/>
<path d="M434 46.5C434 55.0604 440.94 62 449.5 62C458.06 62 465 55.0604 465 46.5C465 37.9396 458.06 31 449.5 31C440.94 31 434 37.9396 434 46.5Z" fill="#FEF9E6"/>
<path d="M496 46.5C496 55.0604 502.94 62 511.5 62C520.06 62 527 55.0604 527 46.5C527 37.9396 520.06 31 511.5 31C502.94 31 496 37.9396 496 46.5Z" fill="#FEF9E6"/>
<path d="M527 46.5C527 55.0604 533.94 62 542.5 62C551.06 62 558 55.0604 558 46.5C558 37.9396 551.06 31 542.5 31C533.94 31 527 37.9396 527 46.5Z" fill="#FEF9E6"/>
<path d="M682 46.5C682 55.0604 688.94 62 697.5 62C706.06 62 713 55.0604 713 46.5C713 37.9396 706.06 31 697.5 31C688.94 31 682 37.9396 682 46.5Z" fill="#FEF9E6"/>
<path d="M744 46.5C744 55.0604 750.94 62 759.5 62C768.06 62 775 55.0604 775 46.5C775 37.9396 768.06 31 759.5 31C750.94 31 744 37.9396 744 46.5Z" fill="#FEF9E6"/>
<path d="M248 77.5C248 86.0604 254.94 93 263.5 93C272.06 93 279 86.0604 279 77.5C279 68.9396 272.06 62 263.5 62C254.94 62 248 68.9396 248 77.5Z" fill="#FEF9E6"/>
<path d="M372 77.5C372 86.0604 378.94 93 387.5 93C396.06 93 403 86.0604 403 77.5C403 68.9396 396.06 62 387.5 62C378.94 62 372 68.9396 372 77.5Z" fill="#FEF9E6"/>
<path d="M403 77.5C403 86.0604 409.94 93 418.5 93C427.06 93 434 86.0604 434 77.5C434 68.9396 427.06 62 418.5 62C409.94 62 403 68.9396 403 77.5Z" fill="#FEF9E6"/>
<path d="M465 77.5C465 86.0604 471.94 93 480.5 93C489.06 93 496 86.0604 496 77.5C496 68.9396 489.06 62 480.5 62C471.94 62 465 68.9396 465 77.5Z" fill="#FEF9E6"/>
<path d="M496 77.5C496 86.0604 502.94 93 511.5 93C520.06 93 527 86.0604 527 77.5C527 68.9396 520.06 62 511.5 62C502.94 62 496 68.9396 496 77.5Z" fill="#FEF9E6"/>
<path d="M558 77.5C558 86.0604 564.94 93 573.5 93C582.06 93 589 86.0604 589 77.5C589 68.9396 582.06 62 573.5 62C564.94 62 558 68.9396 558 77.5Z" fill="#FEF9E6"/>
<path d="M651 77.5C651 86.0604 657.94 93 666.5 93C675.06 93 682 86.0604 682 77.5C682 68.9396 675.06 62 666.5 62C657.94 62 651 68.9396 651 77.5Z" fill="#FEF9E6"/>
<path d="M682 77.5C682 86.0604 688.94 93 697.5 93C706.06 93 713 86.0604 713 77.5C713 68.9396 706.06 62 697.5 62C688.94 62 682 68.9396 682 77.5Z" fill="#FEF9E6"/>
<path d="M713 77.5C713 86.0604 719.94 93 728.5 93C737.06 93 744 86.0604 744 77.5C744 68.9396 737.06 62 728.5 62C719.94 62 713 68.9396 713 77.5Z" fill="#FEF9E6"/>
<path d="M744 77.5C744 86.0604 750.94 93 759.5 93C768.06 93 775 86.0604 775 77.5C775 68.9396 768.06 62 759.5 62C750.94 62 744 68.9396 744 77.5Z" fill="#FEF9E6"/>
<path d="M279 108.5C279 117.06 285.94 124 294.5 124C303.06 124 310 117.06 310 108.5C310 99.9396 303.06 93 294.5 93C285.94 93 279 99.9396 279 108.5Z" fill="#FEF9E6"/>
<path d="M310 108.5C310 117.06 316.94 124 325.5 124C334.06 124 341 117.06 341 108.5C341 99.9396 334.06 93 325.5 93C316.94 93 310 99.9396 310 108.5Z" fill="#FEF9E6"/>
<path d="M372 108.5C372 117.06 378.94 124 387.5 124C396.06 124 403 117.06 403 108.5C403 99.9396 396.06 93 387.5 93C378.94 93 372 99.9396 372 108.5Z" fill="#FEF9E6"/>
<path d="M403 108.5C403 117.06 409.94 124 418.5 124C427.06 124 434 117.06 434 108.5C434 99.9396 427.06 93 418.5 93C409.94 93 403 99.9396 403 108.5Z" fill="#FEF9E6"/>
<path d="M434 108.5C434 117.06 440.94 124 449.5 124C458.06 124 465 117.06 465 108.5C465 99.9396 458.06 93 449.5 93C440.94 93 434 99.9396 434 108.5Z" fill="#FEF9E6"/>
<path d="M465 108.5C465 117.06 471.94 124 480.5 124C489.06 124 496 117.06 496 108.5C496 99.9396 489.06 93 480.5 93C471.94 93 465 99.9396 465 108.5Z" fill="#FEF9E6"/>
<path d="M558 108.5C558 117.06 564.94 124 573.5 124C582.06 124 589 117.06 589 108.5C589 99.9396 582.06 93 573.5 93C564.94 93 558 99.9396 558 108.5Z" fill="#FEF9E6"/>
<path d="M589 108.5C589 117.06 595.94 124 604.5 124C613.06 124 620 117.06 620 108.5C620 99.9396 613.06 93 604.5 93C595.94 93 589 99.9396 589 108.5Z" fill="#FEF9E6"/>
<path d="M713 108.5C713 117.06 719.94 124 728.5 124C737.06 124 744 117.06 744 108.5C744 99.9396 737.06 93 728.5 93C719.94 93 713 99.9396 713 108.5Z" fill="#FEF9E6"/>
<path d="M744 108.5C744 117.06 750.94 124 759.5 124C768.06 124 775 117.06 775 108.5C775 99.9396 768.06 93 759.5 93C750.94 93 744 99.9396 744 108.5Z" fill="#FEF9E6"/>
<path d="M434 139.5C434 148.06 440.94 155 449.5 155C458.06 155 465 148.06 465 139.5C465 130.94 458.06 124 449.5 124C440.94 124 434 130.94 434 139.5Z" fill="#FEF9E6"/>
<path d="M496 139.5C496 148.06 502.94 155 511.5 155C520.06 155 527 148.06 527 139.5C527 130.94 520.06 124 511.5 124C502.94 124 496 130.94 496 139.5Z" fill="#FEF9E6"/>
<path d="M651 139.5C651 148.06 657.94 155 666.5 155C675.06 155 682 148.06 682 139.5C682 130.94 675.06 124 666.5 124C657.94 124 651 130.94 651 139.5Z" fill="#FEF9E6"/>
<path d="M682 139.5C682 148.06 688.94 155 697.5 155C706.06 155 713 148.06 713 139.5C713 130.94 706.06 124 697.5 124C688.94 124 682 130.94 682 139.5Z" fill="#FEF9E6"/>
<path d="M248 170.5C248 179.06 254.94 186 263.5 186C272.06 186 279 179.06 279 170.5C279 161.94 272.06 155 263.5 155C254.94 155 248 161.94 248 170.5Z" fill="#FEF9E6"/>
<path d="M279 170.5C279 179.06 285.94 186 294.5 186C303.06 186 310 179.06 310 170.5C310 161.94 303.06 155 294.5 155C285.94 155 279 161.94 279 170.5Z" fill="#FEF9E6"/>
<path d="M310 170.5C310 179.06 316.94 186 325.5 186C334.06 186 341 179.06 341 170.5C341 161.94 334.06 155 325.5 155C316.94 155 310 161.94 310 170.5Z" fill="#FEF9E6"/>
<path d="M341 170.5C341 179.06 347.94 186 356.5 186C365.06 186 372 179.06 372 170.5C372 161.94 365.06 155 356.5 155C347.94 155 341 161.94 341 170.5Z" fill="#FEF9E6"/>
<path d="M403 170.5C403 179.06 409.94 186 418.5 186C427.06 186 434 179.06 434 170.5C434 161.94 427.06 155 418.5 155C409.94 155 403 161.94 403 170.5Z" fill="#FEF9E6"/>
<path d="M465 170.5C465 179.06 471.94 186 480.5 186C489.06 186 496 179.06 496 170.5C496 161.94 489.06 155 480.5 155C471.94 155 465 161.94 465 170.5Z" fill="#FEF9E6"/>
<path d="M527 170.5C527 179.06 533.94 186 542.5 186C551.06 186 558 179.06 558 170.5C558 161.94 551.06 155 542.5 155C533.94 155 527 161.94 527 170.5Z" fill="#FEF9E6"/>
<path d="M651 170.5C651 179.06 657.94 186 666.5 186C675.06 186 682 179.06 682 170.5C682 161.94 675.06 155 666.5 155C657.94 155 651 161.94 651 170.5Z" fill="#FEF9E6"/>
<path d="M682 170.5C682 179.06 688.94 186 697.5 186C706.06 186 713 179.06 713 170.5C713 161.94 706.06 155 697.5 155C688.94 155 682 161.94 682 170.5Z" fill="#FEF9E6"/>
<path d="M713 170.5C713 179.06 719.94 186 728.5 186C737.06 186 744 179.06 744 170.5C744 161.94 737.06 155 728.5 155C719.94 155 713 161.94 713 170.5Z" fill="#FEF9E6"/>
<path d="M744 170.5C744 179.06 750.94 186 759.5 186C768.06 186 775 179.06 775 170.5C775 161.94 768.06 155 759.5 155C750.94 155 744 161.94 744 170.5Z" fill="#FEF9E6"/>
<path d="M248 201.5C248 210.06 254.94 217 263.5 217C272.06 217 279 210.06 279 201.5C279 192.94 272.06 186 263.5 186C254.94 186 248 192.94 248 201.5Z" fill="#FEF9E6"/>
<path d="M310 201.5C310 210.06 316.94 217 325.5 217C334.06 217 341 210.06 341 201.5C341 192.94 334.06 186 325.5 186C316.94 186 310 192.94 310 201.5Z" fill="#FEF9E6"/>
<path d="M372 201.5C372 210.06 378.94 217 387.5 217C396.06 217 403 210.06 403 201.5C403 192.94 396.06 186 387.5 186C378.94 186 372 192.94 372 201.5Z" fill="#FEF9E6"/>
<path d="M434 201.5C434 210.06 440.94 217 449.5 217C458.06 217 465 210.06 465 201.5C465 192.94 458.06 186 449.5 186C440.94 186 434 192.94 434 201.5Z" fill="#FEF9E6"/>
<path d="M496 201.5C496 210.06 502.94 217 511.5 217C520.06 217 527 210.06 527 201.5C527 192.94 520.06 186 511.5 186C502.94 186 496 192.94 496 201.5Z" fill="#FEF9E6"/>
<path d="M558 201.5C558 210.06 564.94 217 573.5 217C582.06 217 589 210.06 589 201.5C589 192.94 582.06 186 573.5 186C564.94 186 558 192.94 558 201.5Z" fill="#FEF9E6"/>
<path d="M620 201.5C620 210.06 626.94 217 635.5 217C644.06 217 651 210.06 651 201.5C651 192.94 644.06 186 635.5 186C626.94 186 620 192.94 620 201.5Z" fill="#FEF9E6"/>
<path d="M682 201.5C682 210.06 688.94 217 697.5 217C706.06 217 713 210.06 713 201.5C713 192.94 706.06 186 697.5 186C688.94 186 682 192.94 682 201.5Z" fill="#FEF9E6"/>
<path d="M744 201.5C744 210.06 750.94 217 759.5 217C768.06 217 775 210.06 775 201.5C775 192.94 768.06 186 759.5 186C750.94 186 744 192.94 744 201.5Z" fill="#FEF9E6"/>
<path d="M248 232.5C248 241.06 254.94 248 263.5 248C272.06 248 279 241.06 279 232.5C279 223.94 272.06 217 263.5 217C254.94 217 248 223.94 248 232.5Z" fill="#FEF9E6"/>
<path d="M279 232.5C279 241.06 285.94 248 294.5 248C303.06 248 310 241.06 310 232.5C310 223.94 303.06 217 294.5 217C285.94 217 279 223.94 279 232.5Z" fill="#FEF9E6"/>
<path d="M310 232.5C310 241.06 316.94 248 325.5 248C334.06 248 341 241.06 341 232.5C341 223.94 334.06 217 325.5 217C316.94 217 310 223.94 310 232.5Z" fill="#FEF9E6"/>
<path d="M465 232.5C465 241.06 471.94 248 480.5 248C489.06 248 496 241.06 496 232.5C496 223.94 489.06 217 480.5 217C471.94 217 465 223.94 465 232.5Z" fill="#FEF9E6"/>
<path d="M527 232.5C527 241.06 533.94 248 542.5 248C551.06 248 558 241.06 558 232.5C558 223.94 551.06 217 542.5 217C533.94 217 527 223.94 527 232.5Z" fill="#FEF9E6"/>
<path d="M589 232.5C589 241.06 595.94 248 604.5 248C613.06 248 620 241.06 620 232.5C620 223.94 613.06 217 604.5 217C595.94 217 589 223.94 589 232.5Z" fill="#FEF9E6"/>
<path d="M620 232.5C620 241.06 626.94 248 635.5 248C644.06 248 651 241.06 651 232.5C651 223.94 644.06 217 635.5 217C626.94 217 620 223.94 620 232.5Z" fill="#FEF9E6"/>
<path d="M651 232.5C651 241.06 657.94 248 666.5 248C675.06 248 682 241.06 682 232.5C682 223.94 675.06 217 666.5 217C657.94 217 651 223.94 651 232.5Z" fill="#FEF9E6"/>
<path d="M713 232.5C713 241.06 719.94 248 728.5 248C737.06 248 744 241.06 744 232.5C744 223.94 737.06 217 728.5 217C719.94 217 713 223.94 713 232.5Z" fill="#FEF9E6"/>
<path d="M62 263.5C62 272.06 68.9396 279 77.5 279C86.0604 279 93 272.06 93 263.5C93 254.94 86.0604 248 77.5 248C68.9396 248 62 254.94 62 263.5Z" fill="#FEF9E6"/>
<path d="M93 263.5C93 272.06 99.9396 279 108.5 279C117.06 279 124 272.06 124 263.5C124 254.94 117.06 248 108.5 248C99.9396 248 93 254.94 93 263.5Z" fill="#FEF9E6"/>
<path d="M124 263.5C124 272.06 130.94 279 139.5 279C148.06 279 155 272.06 155 263.5C155 254.94 148.06 248 139.5 248C130.94 248 124 254.94 124 263.5Z" fill="#FEF9E6"/>
<path d="M186 263.5C186 272.06 192.94 279 201.5 279C210.06 279 217 272.06 217 263.5C217 254.94 210.06 248 201.5 248C192.94 248 186 254.94 186 263.5Z" fill="#FEF9E6"/>
<path d="M248 263.5C248 272.06 254.94 279 263.5 279C272.06 279 279 272.06 279 263.5C279 254.94 272.06 248 263.5 248C254.94 248 248 254.94 248 263.5Z" fill="#FEF9E6"/>
<path d="M279 263.5C279 272.06 285.94 279 294.5 279C303.06 279 310 272.06 310 263.5C310 254.94 303.06 248 294.5 248C285.94 248 279 254.94 279 263.5Z" fill="#FEF9E6"/>
<path d="M341 263.5C341 272.06 347.94 279 356.5 279C365.06 279 372 272.06 372 263.5C372 254.94 365.06 248 356.5 248C347.94 248 341 254.94 341 263.5Z" fill="#FEF9E6"/>
<path d="M434 263.5C434 272.06 440.94 279 449.5 279C458.06 279 465 272.06 465 263.5C465 254.94 458.06 248 449.5 248C440.94 248 434 254.94 434 263.5Z" fill="#FEF9E6"/>
<path d="M558 263.5C558 272.06 564.94 279 573.5 279C582.06 279 589 272.06 589 263.5C589 254.94 582.06 248 573.5 248C564.94 248 558 254.94 558 263.5Z" fill="#FEF9E6"/>
<path d="M713 263.5C713 272.06 719.94 279 728.5 279C737.06 279 744 272.06 744 263.5C744 254.94 737.06 248 728.5 248C719.94 248 713 254.94 713 263.5Z" fill="#FEF9E6"/>
<path d="M775 263.5C775 272.06 781.94 279 790.5 279C799.06 279 806 272.06 806 263.5C806 254.94 799.06 248 790.5 248C781.94 248 775 254.94 775 263.5Z" fill="#FEF9E6"/>
<path d="M806 263.5C806 272.06 812.94 279 821.5 279C830.06 279 837 272.06 837 263.5C837 254.94 830.06 248 821.5 248C812.94 248 806 254.94 806 263.5Z" fill="#FEF9E6"/>
<path d="M837 263.5C837 272.06 843.94 279 852.5 279C861.06 279 868 272.06 868 263.5C868 254.94 861.06 248 852.5 248C843.94 248 837 254.94 837 263.5Z" fill="#FEF9E6"/>
<path d="M930 263.5C930 272.06 936.94 279 945.5 279C954.06 279 961 272.06 961 263.5C961 254.94 954.06 248 945.5 248C936.94 248 930 254.94 930 263.5Z" fill="#FEF9E6"/>
<path d="M961 263.5C961 272.06 967.94 279 976.5 279C985.06 279 992 272.06 992 263.5C992 254.94 985.06 248 976.5 248C967.94 248 961 254.94 961 263.5Z" fill="#FEF9E6"/>
<path d="M992 263.5C992 272.06 998.94 279 1007.5 279C1016.06 279 1023 272.06 1023 263.5C1023 254.94 1016.06 248 1007.5 248C998.94 248 992 254.94 992 263.5Z" fill="#FEF9E6"/>
<path d="M93 294.5C93 303.06 99.9396 310 108.5 310C117.06 310 124 303.06 124 294.5C124 285.94 117.06 279 108.5 279C99.9396 279 93 285.94 93 294.5Z" fill="#FEF9E6"/>
<path d="M155 294.5C155 303.06 161.94 310 170.5 310C179.06 310 186 303.06 186 294.5C186 285.94 179.06 279 170.5 279C161.94 279 155 285.94 155 294.5Z" fill="#FEF9E6"/>
<path d="M310 294.5C310 303.06 316.94 310 325.5 310C334.06 310 341 303.06 341 294.5C341 285.94 334.06 279 325.5 279C316.94 279 310 285.94 310 294.5Z" fill="#FEF9E6"/>
<path d="M341 294.5C341 303.06 347.94 310 356.5 310C365.06 310 372 303.06 372 294.5C372 285.94 365.06 279 356.5 279C347.94 279 341 285.94 341 294.5Z" fill="#FEF9E6"/>
<path d="M465 294.5C465 303.06 471.94 310 480.5 310C489.06 310 496 303.06 496 294.5C496 285.94 489.06 279 480.5 279C471.94 279 465 285.94 465 294.5Z" fill="#FEF9E6"/>
<path d="M527 294.5C527 303.06 533.94 310 542.5 310C551.06 310 558 303.06 558 294.5C558 285.94 551.06 279 542.5 279C533.94 279 527 285.94 527 294.5Z" fill="#FEF9E6"/>
<path d="M558 294.5C558 303.06 564.94 310 573.5 310C582.06 310 589 303.06 589 294.5C589 285.94 582.06 279 573.5 279C564.94 279 558 285.94 558 294.5Z" fill="#FEF9E6"/>
<path d="M620 294.5C620 303.06 626.94 310 635.5 310C644.06 310 651 303.06 651 294.5C651 285.94 644.06 279 635.5 279C626.94 279 620 285.94 620 294.5Z" fill="#FEF9E6"/>
<path d="M651 294.5C651 303.06 657.94 310 666.5 310C675.06 310 682 303.06 682 294.5C682 285.94 675.06 279 666.5 279C657.94 279 651 285.94 651 294.5Z" fill="#FEF9E6"/>
<path d="M682 294.5C682 303.06 688.94 310 697.5 310C706.06 310 713 303.06 713 294.5C713 285.94 706.06 279 697.5 279C688.94 279 682 285.94 682 294.5Z" fill="#FEF9E6"/>
<path d="M713 294.5C713 303.06 719.94 310 728.5 310C737.06 310 744 303.06 744 294.5C744 285.94 737.06 279 728.5 279C719.94 279 713 285.94 713 294.5Z" fill="#FEF9E6"/>
<path d="M744 294.5C744 303.06 750.94 310 759.5 310C768.06 310 775 303.06 775 294.5C775 285.94 768.06 279 759.5 279C750.94 279 744 285.94 744 294.5Z" fill="#FEF9E6"/>
<path d="M775 294.5C775 303.06 781.94 310 790.5 310C799.06 310 806 303.06 806 294.5C806 285.94 799.06 279 790.5 279C781.94 279 775 285.94 775 294.5Z" fill="#FEF9E6"/>
<path d="M806 294.5C806 303.06 812.94 310 821.5 310C830.06 310 837 303.06 837 294.5C837 285.94 830.06 279 821.5 279C812.94 279 806 285.94 806 294.5Z" fill="#FEF9E6"/>
<path d="M899 294.5C899 303.06 905.94 310 914.5 310C923.06 310 930 303.06 930 294.5C930 285.94 923.06 279 914.5 279C905.94 279 899 285.94 899 294.5Z" fill="#FEF9E6"/>
<path d="M930 294.5C930 303.06 936.94 310 945.5 310C954.06 310 961 303.06 961 294.5C961 285.94 954.06 279 945.5 279C936.94 279 930 285.94 930 294.5Z" fill="#FEF9E6"/>
<path d="M992 294.5C992 303.06 998.94 310 1007.5 310C1016.06 310 1023 303.06 1023 294.5C1023 285.94 1016.06 279 1007.5 279C998.94 279 992 285.94 992 294.5Z" fill="#FEF9E6"/>
<path d="M0 325.5C0 334.06 6.93959 341 15.5 341C24.0604 341 31 334.06 31 325.5C31 316.94 24.0604 310 15.5 310C6.93959 310 0 316.94 0 325.5Z" fill="#FEF9E6"/>
<path d="M62 325.5C62 334.06 68.9396 341 77.5 341C86.0604 341 93 334.06 93 325.5C93 316.94 86.0604 310 77.5 310C68.9396 310 62 316.94 62 325.5Z" fill="#FEF9E6"/>
<path d="M93 325.5C93 334.06 99.9396 341 108.5 341C117.06 341 124 334.06 124 325.5C124 316.94 117.06 310 108.5 310C99.9396 310 93 316.94 93 325.5Z" fill="#FEF9E6"/>
<path d="M124 325.5C124 334.06 130.94 341 139.5 341C148.06 341 155 334.06 155 325.5C155 316.94 148.06 310 139.5 310C130.94 310 124 316.94 124 325.5Z" fill="#FEF9E6"/>
<path d="M155 325.5C155 334.06 161.94 341 170.5 341C179.06 341 186 334.06 186 325.5C186 316.94 179.06 310 170.5 310C161.94 310 155 316.94 155 325.5Z" fill="#FEF9E6"/>
<path d="M186 325.5C186 334.06 192.94 341 201.5 341C210.06 341 217 334.06 217 325.5C217 316.94 210.06 310 201.5 310C192.94 310 186 316.94 186 325.5Z" fill="#FEF9E6"/>
<path d="M248 325.5C248 334.06 254.94 341 263.5 341C272.06 341 279 334.06 279 325.5C279 316.94 272.06 310 263.5 310C254.94 310 248 316.94 248 325.5Z" fill="#FEF9E6"/>
<path d="M310 325.5C310 334.06 316.94 341 325.5 341C334.06 341 341 334.06 341 325.5C341 316.94 334.06 310 325.5 310C316.94 310 310 316.94 310 325.5Z" fill="#FEF9E6"/>
<path d="M372 325.5C372 334.06 378.94 341 387.5 341C396.06 341 403 334.06 403 325.5C403 316.94 396.06 310 387.5 310C378.94 310 372 316.94 372 325.5Z" fill="#FEF9E6"/>
<path d="M434 325.5C434 334.06 440.94 341 449.5 341C458.06 341 465 334.06 465 325.5C465 316.94 458.06 310 449.5 310C440.94 310 434 316.94 434 325.5Z" fill="#FEF9E6"/>
<path d="M465 325.5C465 334.06 471.94 341 480.5 341C489.06 341 496 334.06 496 325.5C496 316.94 489.06 310 480.5 310C471.94 310 465 316.94 465 325.5Z" fill="#FEF9E6"/>
<path d="M558 325.5C558 334.06 564.94 341 573.5 341C582.06 341 589 334.06 589 325.5C589 316.94 582.06 310 573.5 310C564.94 310 558 316.94 558 325.5Z" fill="#FEF9E6"/>
<path d="M620 325.5C620 334.06 626.94 341 635.5 341C644.06 341 651 334.06 651 325.5C651 316.94 644.06 310 635.5 310C626.94 310 620 316.94 620 325.5Z" fill="#FEF9E6"/>
<path d="M651 325.5C651 334.06 657.94 341 666.5 341C675.06 341 682 334.06 682 325.5C682 316.94 675.06 310 666.5 310C657.94 310 651 316.94 651 325.5Z" fill="#FEF9E6"/>
<path d="M775 325.5C775 334.06 781.94 341 790.5 341C799.06 341 806 334.06 806 325.5C806 316.94 799.06 310 790.5 310C781.94 310 775 316.94 775 325.5Z" fill="#FEF9E6"/>
<path d="M806 325.5C806 334.06 812.94 341 821.5 341C830.06 341 837 334.06 837 325.5C837 316.94 830.06 310 821.5 310C812.94 310 806 316.94 806 325.5Z" fill="#FEF9E6"/>
<path d="M837 325.5C837 334.06 843.94 341 852.5 341C861.06 341 868 334.06 868 325.5C868 316.94 861.06 310 852.5 310C843.94 310 837 316.94 837 325.5Z" fill="#FEF9E6"/>
<path d="M961 325.5C961 334.06 967.94 341 976.5 341C985.06 341 992 334.06 992 325.5C992 316.94 985.06 310 976.5 310C967.94 310 961 316.94 961 325.5Z" fill="#FEF9E6"/>
<path d="M62 356.5C62 365.06 68.9396 372 77.5 372C86.0604 372 93 365.06 93 356.5C93 347.94 86.0604 341 77.5 341C68.9396 341 62 347.94 62 356.5Z" fill="#FEF9E6"/>
<path d="M93 356.5C93 365.06 99.9396 372 108.5 372C117.06 372 124 365.06 124 356.5C124 347.94 117.06 341 108.5 341C99.9396 341 93 347.94 93 356.5Z" fill="#FEF9E6"/>
<path d="M217 356.5C217 365.06 223.94 372 232.5 372C241.06 372 248 365.06 248 356.5C248 347.94 241.06 341 232.5 341C223.94 341 217 347.94 217 356.5Z" fill="#FEF9E6"/>
<path d="M248 356.5C248 365.06 254.94 372 263.5 372C272.06 372 279 365.06 279 356.5C279 347.94 272.06 341 263.5 341C254.94 341 248 347.94 248 356.5Z" fill="#FEF9E6"/>
<path d="M682 356.5C682 365.06 688.94 372 697.5 372C706.06 372 713 365.06 713 356.5C713 347.94 706.06 341 697.5 341C688.94 341 682 347.94 682 356.5Z" fill="#FEF9E6"/>
<path d="M775 356.5C775 365.06 781.94 372 790.5 372C799.06 372 806 365.06 806 356.5C806 347.94 799.06 341 790.5 341C781.94 341 775 347.94 775 356.5Z" fill="#FEF9E6"/>
<path d="M930 356.5C930 365.06 936.94 372 945.5 372C954.06 372 961 365.06 961 356.5C961 347.94 954.06 341 945.5 341C936.94 341 930 347.94 930 356.5Z" fill="#FEF9E6"/>
<path d="M961 356.5C961 365.06 967.94 372 976.5 372C985.06 372 992 365.06 992 356.5C992 347.94 985.06 341 976.5 341C967.94 341 961 347.94 961 356.5Z" fill="#FEF9E6"/>
<path d="M992 356.5C992 365.06 998.94 372 1007.5 372C1016.06 372 1023 365.06 1023 356.5C1023 347.94 1016.06 341 1007.5 341C998.94 341 992 347.94 992 356.5Z" fill="#FEF9E6"/>
<path d="M186 387.5C186 396.06 192.94 403 201.5 403C210.06 403 217 396.06 217 387.5C217 378.94 210.06 372 201.5 372C192.94 372 186 378.94 186 387.5Z" fill="#FEF9E6"/>
<path d="M217 387.5C217 396.06 223.94 403 232.5 403C241.06 403 248 396.06 248 387.5C248 378.94 241.06 372 232.5 372C223.94 372 217 378.94 217 387.5Z" fill="#FEF9E6"/>
<path d="M279 387.5C279 396.06 285.94 403 294.5 403C303.06 403 310 396.06 310 387.5C310 378.94 303.06 372 294.5 372C285.94 372 279 378.94 279 387.5Z" fill="#FEF9E6"/>
<path d="M310 387.5C310 396.06 316.94 403 325.5 403C334.06 403 341 396.06 341 387.5C341 378.94 334.06 372 325.5 372C316.94 372 310 378.94 310 387.5Z" fill="#FEF9E6"/>
<path d="M775 387.5C775 396.06 781.94 403 790.5 403C799.06 403 806 396.06 806 387.5C806 378.94 799.06 372 790.5 372C781.94 372 775 378.94 775 387.5Z" fill="#FEF9E6"/>
<path d="M899 387.5C899 396.06 905.94 403 914.5 403C923.06 403 930 396.06 930 387.5C930 378.94 923.06 372 914.5 372C905.94 372 899 378.94 899 387.5Z" fill="#FEF9E6"/>
<path d="M961 387.5C961 396.06 967.94 403 976.5 403C985.06 403 992 396.06 992 387.5C992 378.94 985.06 372 976.5 372C967.94 372 961 378.94 961 387.5Z" fill="#FEF9E6"/>
<path d="M0 418.5C0 427.06 6.93959 434 15.5 434C24.0604 434 31 427.06 31 418.5C31 409.94 24.0604 403 15.5 403C6.93959 403 0 409.94 0 418.5Z" fill="#FEF9E6"/>
<path d="M31 418.5C31 427.06 37.9396 434 46.5 434C55.0604 434 62 427.06 62 418.5C62 409.94 55.0604 403 46.5 403C37.9396 403 31 409.94 31 418.5Z" fill="#FEF9E6"/>
<path d="M62 418.5C62 427.06 68.9396 434 77.5 434C86.0604 434 93 427.06 93 418.5C93 409.94 86.0604 403 77.5 403C68.9396 403 62 409.94 62 418.5Z" fill="#FEF9E6"/>
<path d="M155 418.5C155 427.06 161.94 434 170.5 434C179.06 434 186 427.06 186 418.5C186 409.94 179.06 403 170.5 403C161.94 403 155 409.94 155 418.5Z" fill="#FEF9E6"/>
<path d="M217 418.5C217 427.06 223.94 434 232.5 434C241.06 434 248 427.06 248 418.5C248 409.94 241.06 403 232.5 403C223.94 403 217 409.94 217 418.5Z" fill="#FEF9E6"/>
<path d="M310 418.5C310 427.06 316.94 434 325.5 434C334.06 434 341 427.06 341 418.5C341 409.94 334.06 403 325.5 403C316.94 403 310 409.94 310 418.5Z" fill="#FEF9E6"/>
<path d="M682 418.5C682 427.06 688.94 434 697.5 434C706.06 434 713 427.06 713 418.5C713 409.94 706.06 403 697.5 403C688.94 403 682 409.94 682 418.5Z" fill="#FEF9E6"/>
<path d="M713 418.5C713 427.06 719.94 434 728.5 434C737.06 434 744 427.06 744 418.5C744 409.94 737.06 403 728.5 403C719.94 403 713 409.94 713 418.5Z" fill="#FEF9E6"/>
<path d="M744 418.5C744 427.06 750.94 434 759.5 434C768.06 434 775 427.06 775 418.5C775 409.94 768.06 403 759.5 403C750.94 403 744 409.94 744 418.5Z" fill="#FEF9E6"/>
<path d="M806 418.5C806 427.06 812.94 434 821.5 434C830.06 434 837 427.06 837 418.5C837 409.94 830.06 403 821.5 403C812.94 403 806 409.94 806 418.5Z" fill="#FEF9E6"/>
<path d="M837 418.5C837 427.06 843.94 434 852.5 434C861.06 434 868 427.06 868 418.5C868 409.94 861.06 403 852.5 403C843.94 403 837 409.94 837 418.5Z" fill="#FEF9E6"/>
<path d="M930 418.5C930 427.06 936.94 434 945.5 434C954.06 434 961 427.06 961 418.5C961 409.94 954.06 403 945.5 403C936.94 403 930 409.94 930 418.5Z" fill="#FEF9E6"/>
<path d="M992 418.5C992 427.06 998.94 434 1007.5 434C1016.06 434 1023 427.06 1023 418.5C1023 409.94 1016.06 403 1007.5 403C998.94 403 992 409.94 992 418.5Z" fill="#FEF9E6"/>
<path d="M0 449.5C0 458.06 6.93959 465 15.5 465C24.0604 465 31 458.06 31 449.5C31 440.94 24.0604 434 15.5 434C6.93959 434 0 440.94 0 449.5Z" fill="#FEF9E6"/>
<path d="M62 449.5C62 458.06 68.9396 465 77.5 465C86.0604 465 93 458.06 93 449.5C93 440.94 86.0604 434 77.5 434C68.9396 434 62 440.94 62 449.5Z" fill="#FEF9E6"/>
<path d="M124 449.5C124 458.06 130.94 465 139.5 465C148.06 465 155 458.06 155 449.5C155 440.94 148.06 434 139.5 434C130.94 434 124 440.94 124 449.5Z" fill="#FEF9E6"/>
<path d="M155 449.5C155 458.06 161.94 465 170.5 465C179.06 465 186 458.06 186 449.5C186 440.94 179.06 434 170.5 434C161.94 434 155 440.94 155 449.5Z" fill="#FEF9E6"/>
<path d="M186 449.5C186 458.06 192.94 465 201.5 465C210.06 465 217 458.06 217 449.5C217 440.94 210.06 434 201.5 434C192.94 434 186 440.94 186 449.5Z" fill="#FEF9E6"/>
<path d="M248 449.5C248 458.06 254.94 465 263.5 465C272.06 465 279 458.06 279 449.5C279 440.94 272.06 434 263.5 434C254.94 434 248 440.94 248 449.5Z" fill="#FEF9E6"/>
<path d="M310 449.5C310 458.06 316.94 465 325.5 465C334.06 465 341 458.06 341 449.5C341 440.94 334.06 434 325.5 434C316.94 434 310 440.94 310 449.5Z" fill="#FEF9E6"/>
<path d="M682 449.5C682 458.06 688.94 465 697.5 465C706.06 465 713 458.06 713 449.5C713 440.94 706.06 434 697.5 434C688.94 434 682 440.94 682 449.5Z" fill="#FEF9E6"/>
<path d="M899 449.5C899 458.06 905.94 465 914.5 465C923.06 465 930 458.06 930 449.5C930 440.94 923.06 434 914.5 434C905.94 434 899 440.94 899 449.5Z" fill="#FEF9E6"/>
<path d="M930 449.5C930 458.06 936.94 465 945.5 465C954.06 465 961 458.06 961 449.5C961 440.94 954.06 434 945.5 434C936.94 434 930 440.94 930 449.5Z" fill="#FEF9E6"/>
<path d="M961 449.5C961 458.06 967.94 465 976.5 465C985.06 465 992 458.06 992 449.5C992 440.94 985.06 434 976.5 434C967.94 434 961 440.94 961 449.5Z" fill="#FEF9E6"/>
<path d="M31 480.5C31 489.06 37.9396 496 46.5 496C55.0604 496 62 489.06 62 480.5C62 471.94 55.0604 465 46.5 465C37.9396 465 31 471.94 31 480.5Z" fill="#FEF9E6"/>
<path d="M124 480.5C124 489.06 130.94 496 139.5 496C148.06 496 155 489.06 155 480.5C155 471.94 148.06 465 139.5 465C130.94 465 124 471.94 124 480.5Z" fill="#FEF9E6"/>
<path d="M155 480.5C155 489.06 161.94 496 170.5 496C179.06 496 186 489.06 186 480.5C186 471.94 179.06 465 170.5 465C161.94 465 155 471.94 155 480.5Z" fill="#FEF9E6"/>
<path d="M217 480.5C217 489.06 223.94 496 232.5 496C241.06 496 248 489.06 248 480.5C248 471.94 241.06 465 232.5 465C223.94 465 217 471.94 217 480.5Z" fill="#FEF9E6"/>
<path d="M310 480.5C310 489.06 316.94 496 325.5 496C334.06 496 341 489.06 341 480.5C341 471.94 334.06 465 325.5 465C316.94 465 310 471.94 310 480.5Z" fill="#FEF9E6"/>
<path d="M682 480.5C682 489.06 688.94 496 697.5 496C706.06 496 713 489.06 713 480.5C713 471.94 706.06 465 697.5 465C688.94 465 682 471.94 682 480.5Z" fill="#FEF9E6"/>
<path d="M713 480.5C713 489.06 719.94 496 728.5 496C737.06 496 744 489.06 744 480.5C744 471.94 737.06 465 728.5 465C719.94 465 713 471.94 713 480.5Z" fill="#FEF9E6"/>
<path d="M775 480.5C775 489.06 781.94 496 790.5 496C799.06 496 806 489.06 806 480.5C806 471.94 799.06 465 790.5 465C781.94 465 775 471.94 775 480.5Z" fill="#FEF9E6"/>
<path d="M806 480.5C806 489.06 812.94 496 821.5 496C830.06 496 837 489.06 837 480.5C837 471.94 830.06 465 821.5 465C812.94 465 806 471.94 806 480.5Z" fill="#FEF9E6"/>
<path d="M837 480.5C837 489.06 843.94 496 852.5 496C861.06 496 868 489.06 868 480.5C868 471.94 861.06 465 852.5 465C843.94 465 837 471.94 837 480.5Z" fill="#FEF9E6"/>
<path d="M930 480.5C930 489.06 936.94 496 945.5 496C954.06 496 961 489.06 961 480.5C961 471.94 954.06 465 945.5 465C936.94 465 930 471.94 930 480.5Z" fill="#FEF9E6"/>
<path d="M961 480.5C961 489.06 967.94 496 976.5 496C985.06 496 992 489.06 992 480.5C992 471.94 985.06 465 976.5 465C967.94 465 961 471.94 961 480.5Z" fill="#FEF9E6"/>
<path d="M0 511.5C0 520.06 6.93959 527 15.5 527C24.0604 527 31 520.06 31 511.5C31 502.94 24.0604 496 15.5 496C6.93959 496 0 502.94 0 511.5Z" fill="#FEF9E6"/>
<path d="M31 511.5C31 520.06 37.9396 527 46.5 527C55.0604 527 62 520.06 62 511.5C62 502.94 55.0604 496 46.5 496C37.9396 496 31 502.94 31 511.5Z" fill="#FEF9E6"/>
<path d="M62 511.5C62 520.06 68.9396 527 77.5 527C86.0604 527 93 520.06 93 511.5C93 502.94 86.0604 496 77.5 496C68.9396 496 62 502.94 62 511.5Z" fill="#FEF9E6"/>
<path d="M93 511.5C93 520.06 99.9396 527 108.5 527C117.06 527 124 520.06 124 511.5C124 502.94 117.06 496 108.5 496C99.9396 496 93 502.94 93 511.5Z" fill="#FEF9E6"/>
<path d="M124 511.5C124 520.06 130.94 527 139.5 527C148.06 527 155 520.06 155 511.5C155 502.94 148.06 496 139.5 496C130.94 496 124 502.94 124 511.5Z" fill="#FEF9E6"/>
<path d="M155 511.5C155 520.06 161.94 527 170.5 527C179.06 527 186 520.06 186 511.5C186 502.94 179.06 496 170.5 496C161.94 496 155 502.94 155 511.5Z" fill="#FEF9E6"/>
<path d="M186 511.5C186 520.06 192.94 527 201.5 527C210.06 527 217 520.06 217 511.5C217 502.94 210.06 496 201.5 496C192.94 496 186 502.94 186 511.5Z" fill="#FEF9E6"/>
<path d="M217 511.5C217 520.06 223.94 527 232.5 527C241.06 527 248 520.06 248 511.5C248 502.94 241.06 496 232.5 496C223.94 496 217 502.94 217 511.5Z" fill="#FEF9E6"/>
<path d="M248 511.5C248 520.06 254.94 527 263.5 527C272.06 527 279 520.06 279 511.5C279 502.94 272.06 496 263.5 496C254.94 496 248 502.94 248 511.5Z" fill="#FEF9E6"/>
<path d="M713 511.5C713 520.06 719.94 527 728.5 527C737.06 527 744 520.06 744 511.5C744 502.94 737.06 496 728.5 496C719.94 496 713 502.94 713 511.5Z" fill="#FEF9E6"/>
<path d="M868 511.5C868 520.06 874.94 527 883.5 527C892.06 527 899 520.06 899 511.5C899 502.94 892.06 496 883.5 496C874.94 496 868 502.94 868 511.5Z" fill="#FEF9E6"/>
<path d="M899 511.5C899 520.06 905.94 527 914.5 527C923.06 527 930 520.06 930 511.5C930 502.94 923.06 496 914.5 496C905.94 496 899 502.94 899 511.5Z" fill="#FEF9E6"/>
<path d="M930 511.5C930 520.06 936.94 527 945.5 527C954.06 527 961 520.06 961 511.5C961 502.94 954.06 496 945.5 496C936.94 496 930 502.94 930 511.5Z" fill="#FEF9E6"/>
<path d="M992 511.5C992 520.06 998.94 527 1007.5 527C1016.06 527 1023 520.06 1023 511.5C1023 502.94 1016.06 496 1007.5 496C998.94 496 992 502.94 992 511.5Z" fill="#FEF9E6"/>
<path d="M0 542.5C0 551.06 6.93959 558 15.5 558C24.0604 558 31 551.06 31 542.5C31 533.94 24.0604 527 15.5 527C6.93959 527 0 533.94 0 542.5Z" fill="#FEF9E6"/>
<path d="M124 542.5C124 551.06 130.94 558 139.5 558C148.06 558 155 551.06 155 542.5C155 533.94 148.06 527 139.5 527C130.94 527 124 533.94 124 542.5Z" fill="#FEF9E6"/>
<path d="M155 542.5C155 551.06 161.94 558 170.5 558C179.06 558 186 551.06 186 542.5C186 533.94 179.06 527 170.5 527C161.94 527 155 533.94 155 542.5Z" fill="#FEF9E6"/>
<path d="M310 542.5C310 551.06 316.94 558 325.5 558C334.06 558 341 551.06 341 542.5C341 533.94 334.06 527 325.5 527C316.94 527 310 533.94 310 542.5Z" fill="#FEF9E6"/>
<path d="M713 542.5C713 551.06 719.94 558 728.5 558C737.06 558 744 551.06 744 542.5C744 533.94 737.06 527 728.5 527C719.94 527 713 533.94 713 542.5Z" fill="#FEF9E6"/>
<path d="M744 542.5C744 551.06 750.94 558 759.5 558C768.06 558 775 551.06 775 542.5C775 533.94 768.06 527 759.5 527C750.94 527 744 533.94 744 542.5Z" fill="#FEF9E6"/>
<path d="M775 542.5C775 551.06 781.94 558 790.5 558C799.06 558 806 551.06 806 542.5C806 533.94 799.06 527 790.5 527C781.94 527 775 533.94 775 542.5Z" fill="#FEF9E6"/>
<path d="M806 542.5C806 551.06 812.94 558 821.5 558C830.06 558 837 551.06 837 542.5C837 533.94 830.06 527 821.5 527C812.94 527 806 533.94 806 542.5Z" fill="#FEF9E6"/>
<path d="M837 542.5C837 551.06 843.94 558 852.5 558C861.06 558 868 551.06 868 542.5C868 533.94 861.06 527 852.5 527C843.94 527 837 533.94 837 542.5Z" fill="#FEF9E6"/>
<path d="M31 573.5C31 582.06 37.9396 589 46.5 589C55.0604 589 62 582.06 62 573.5C62 564.94 55.0604 558 46.5 558C37.9396 558 31 564.94 31 573.5Z" fill="#FEF9E6"/>
<path d="M93 573.5C93 582.06 99.9396 589 108.5 589C117.06 589 124 582.06 124 573.5C124 564.94 117.06 558 108.5 558C99.9396 558 93 564.94 93 573.5Z" fill="#FEF9E6"/>
<path d="M124 573.5C124 582.06 130.94 589 139.5 589C148.06 589 155 582.06 155 573.5C155 564.94 148.06 558 139.5 558C130.94 558 124 564.94 124 573.5Z" fill="#FEF9E6"/>
<path d="M186 573.5C186 582.06 192.94 589 201.5 589C210.06 589 217 582.06 217 573.5C217 564.94 210.06 558 201.5 558C192.94 558 186 564.94 186 573.5Z" fill="#FEF9E6"/>
<path d="M217 573.5C217 582.06 223.94 589 232.5 589C241.06 589 248 582.06 248 573.5C248 564.94 241.06 558 232.5 558C223.94 558 217 564.94 217 573.5Z" fill="#FEF9E6"/>
<path d="M248 573.5C248 582.06 254.94 589 263.5 589C272.06 589 279 582.06 279 573.5C279 564.94 272.06 558 263.5 558C254.94 558 248 564.94 248 573.5Z" fill="#FEF9E6"/>
<path d="M279 573.5C279 582.06 285.94 589 294.5 589C303.06 589 310 582.06 310 573.5C310 564.94 303.06 558 294.5 558C285.94 558 279 564.94 279 573.5Z" fill="#FEF9E6"/>
<path d="M775 573.5C775 582.06 781.94 589 790.5 589C799.06 589 806 582.06 806 573.5C806 564.94 799.06 558 790.5 558C781.94 558 775 564.94 775 573.5Z" fill="#FEF9E6"/>
<path d="M806 573.5C806 582.06 812.94 589 821.5 589C830.06 589 837 582.06 837 573.5C837 564.94 830.06 558 821.5 558C812.94 558 806 564.94 806 573.5Z" fill="#FEF9E6"/>
<path d="M930 573.5C930 582.06 936.94 589 945.5 589C954.06 589 961 582.06 961 573.5C961 564.94 954.06 558 945.5 558C936.94 558 930 564.94 930 573.5Z" fill="#FEF9E6"/>
<path d="M961 573.5C961 582.06 967.94 589 976.5 589C985.06 589 992 582.06 992 573.5C992 564.94 985.06 558 976.5 558C967.94 558 961 564.94 961 573.5Z" fill="#FEF9E6"/>
<path d="M992 573.5C992 582.06 998.94 589 1007.5 589C1016.06 589 1023 582.06 1023 573.5C1023 564.94 1016.06 558 1007.5 558C998.94 558 992 564.94 992 573.5Z" fill="#FEF9E6"/>
<path d="M31 604.5C31 613.06 37.9396 620 46.5 620C55.0604 620 62 613.06 62 604.5C62 595.94 55.0604 589 46.5 589C37.9396 589 31 595.94 31 604.5Z" fill="#FEF9E6"/>
<path d="M124 604.5C124 613.06 130.94 620 139.5 620C148.06 620 155 613.06 155 604.5C155 595.94 148.06 589 139.5 589C130.94 589 124 595.94 124 604.5Z" fill="#FEF9E6"/>
<path d="M248 604.5C248 613.06 254.94 620 263.5 620C272.06 620 279 613.06 279 604.5C279 595.94 272.06 589 263.5 589C254.94 589 248 595.94 248 604.5Z" fill="#FEF9E6"/>
<path d="M682 604.5C682 613.06 688.94 620 697.5 620C706.06 620 713 613.06 713 604.5C713 595.94 706.06 589 697.5 589C688.94 589 682 595.94 682 604.5Z" fill="#FEF9E6"/>
<path d="M713 604.5C713 613.06 719.94 620 728.5 620C737.06 620 744 613.06 744 604.5C744 595.94 737.06 589 728.5 589C719.94 589 713 595.94 713 604.5Z" fill="#FEF9E6"/>
<path d="M744 604.5C744 613.06 750.94 620 759.5 620C768.06 620 775 613.06 775 604.5C775 595.94 768.06 589 759.5 589C750.94 589 744 595.94 744 604.5Z" fill="#FEF9E6"/>
<path d="M806 604.5C806 613.06 812.94 620 821.5 620C830.06 620 837 613.06 837 604.5C837 595.94 830.06 589 821.5 589C812.94 589 806 595.94 806 604.5Z" fill="#FEF9E6"/>
<path d="M837 604.5C837 613.06 843.94 620 852.5 620C861.06 620 868 613.06 868 604.5C868 595.94 861.06 589 852.5 589C843.94 589 837 595.94 837 604.5Z" fill="#FEF9E6"/>
<path d="M899 604.5C899 613.06 905.94 620 914.5 620C923.06 620 930 613.06 930 604.5C930 595.94 923.06 589 914.5 589C905.94 589 899 595.94 899 604.5Z" fill="#FEF9E6"/>
<path d="M930 604.5C930 613.06 936.94 620 945.5 620C954.06 620 961 613.06 961 604.5C961 595.94 954.06 589 945.5 589C936.94 589 930 595.94 930 604.5Z" fill="#FEF9E6"/>
<path d="M992 604.5C992 613.06 998.94 620 1007.5 620C1016.06 620 1023 613.06 1023 604.5C1023 595.94 1016.06 589 1007.5 589C998.94 589 992 595.94 992 604.5Z" fill="#FEF9E6"/>
<path d="M31 635.5C31 644.06 37.9396 651 46.5 651C55.0604 651 62 644.06 62 635.5C62 626.94 55.0604 620 46.5 620C37.9396 620 31 626.94 31 635.5Z" fill="#FEF9E6"/>
<path d="M62 635.5C62 644.06 68.9396 651 77.5 651C86.0604 651 93 644.06 93 635.5C93 626.94 86.0604 620 77.5 620C68.9396 620 62 626.94 62 635.5Z" fill="#FEF9E6"/>
<path d="M186 635.5C186 644.06 192.94 651 201.5 651C210.06 651 217 644.06 217 635.5C217 626.94 210.06 620 201.5 620C192.94 620 186 626.94 186 635.5Z" fill="#FEF9E6"/>
<path d="M775 635.5C775 644.06 781.94 651 790.5 651C799.06 651 806 644.06 806 635.5C806 626.94 799.06 620 790.5 620C781.94 620 775 626.94 775 635.5Z" fill="#FEF9E6"/>
<path d="M806 635.5C806 644.06 812.94 651 821.5 651C830.06 651 837 644.06 837 635.5C837 626.94 830.06 620 821.5 620C812.94 620 806 626.94 806 635.5Z" fill="#FEF9E6"/>
<path d="M837 635.5C837 644.06 843.94 651 852.5 651C861.06 651 868 644.06 868 635.5C868 626.94 861.06 620 852.5 620C843.94 620 837 626.94 837 635.5Z" fill="#FEF9E6"/>
<path d="M868 635.5C868 644.06 874.94 651 883.5 651C892.06 651 899 644.06 899 635.5C899 626.94 892.06 620 883.5 620C874.94 620 868 626.94 868 635.5Z" fill="#FEF9E6"/>
<path d="M899 635.5C899 644.06 905.94 651 914.5 651C923.06 651 930 644.06 930 635.5C930 626.94 923.06 620 914.5 620C905.94 620 899 626.94 899 635.5Z" fill="#FEF9E6"/>
<path d="M961 635.5C961 644.06 967.94 651 976.5 651C985.06 651 992 644.06 992 635.5C992 626.94 985.06 620 976.5 620C967.94 620 961 626.94 961 635.5Z" fill="#FEF9E6"/>
<path d="M992 635.5C992 644.06 998.94 651 1007.5 651C1016.06 651 1023 644.06 1023 635.5C1023 626.94 1016.06 620 1007.5 620C998.94 620 992 626.94 992 635.5Z" fill="#FEF9E6"/>
<path d="M0 666.5C0 675.06 6.93959 682 15.5 682C24.0604 682 31 675.06 31 666.5C31 657.94 24.0604 651 15.5 651C6.93959 651 0 657.94 0 666.5Z" fill="#FEF9E6"/>
<path d="M124 666.5C124 675.06 130.94 682 139.5 682C148.06 682 155 675.06 155 666.5C155 657.94 148.06 651 139.5 651C130.94 651 124 657.94 124 666.5Z" fill="#FEF9E6"/>
<path d="M155 666.5C155 675.06 161.94 682 170.5 682C179.06 682 186 675.06 186 666.5C186 657.94 179.06 651 170.5 651C161.94 651 155 657.94 155 666.5Z" fill="#FEF9E6"/>
<path d="M248 666.5C248 675.06 254.94 682 263.5 682C272.06 682 279 675.06 279 666.5C279 657.94 272.06 651 263.5 651C254.94 651 248 657.94 248 666.5Z" fill="#FEF9E6"/>
<path d="M310 666.5C310 675.06 316.94 682 325.5 682C334.06 682 341 675.06 341 666.5C341 657.94 334.06 651 325.5 651C316.94 651 310 657.94 310 666.5Z" fill="#FEF9E6"/>
<path d="M682 666.5C682 675.06 688.94 682 697.5 682C706.06 682 713 675.06 713 666.5C713 657.94 706.06 651 697.5 651C688.94 651 682 657.94 682 666.5Z" fill="#FEF9E6"/>
<path d="M744 666.5C744 675.06 750.94 682 759.5 682C768.06 682 775 675.06 775 666.5C775 657.94 768.06 651 759.5 651C750.94 651 744 657.94 744 666.5Z" fill="#FEF9E6"/>
<path d="M930 666.5C930 675.06 936.94 682 945.5 682C954.06 682 961 675.06 961 666.5C961 657.94 954.06 651 945.5 651C936.94 651 930 657.94 930 666.5Z" fill="#FEF9E6"/>
<path d="M961 666.5C961 675.06 967.94 682 976.5 682C985.06 682 992 675.06 992 666.5C992 657.94 985.06 651 976.5 651C967.94 651 961 657.94 961 666.5Z" fill="#FEF9E6"/>
<path d="M992 666.5C992 675.06 998.94 682 1007.5 682C1016.06 682 1023 675.06 1023 666.5C1023 657.94 1016.06 651 1007.5 651C998.94 651 992 657.94 992 666.5Z" fill="#FEF9E6"/>
<path d="M0 697.5C0 706.06 6.93959 713 15.5 713C24.0604 713 31 706.06 31 697.5C31 688.94 24.0604 682 15.5 682C6.93959 682 0 688.94 0 697.5Z" fill="#FEF9E6"/>
<path d="M93 697.5C93 706.06 99.9396 713 108.5 713C117.06 713 124 706.06 124 697.5C124 688.94 117.06 682 108.5 682C99.9396 682 93 688.94 93 697.5Z" fill="#FEF9E6"/>
<path d="M124 697.5C124 706.06 130.94 713 139.5 713C148.06 713 155 706.06 155 697.5C155 688.94 148.06 682 139.5 682C130.94 682 124 688.94 124 697.5Z" fill="#FEF9E6"/>
<path d="M155 697.5C155 706.06 161.94 713 170.5 713C179.06 713 186 706.06 186 697.5C186 688.94 179.06 682 170.5 682C161.94 682 155 688.94 155 697.5Z" fill="#FEF9E6"/>
<path d="M186 697.5C186 706.06 192.94 713 201.5 713C210.06 713 217 706.06 217 697.5C217 688.94 210.06 682 201.5 682C192.94 682 186 688.94 186 697.5Z" fill="#FEF9E6"/>
<path d="M217 697.5C217 706.06 223.94 713 232.5 713C241.06 713 248 706.06 248 697.5C248 688.94 241.06 682 232.5 682C223.94 682 217 688.94 217 697.5Z" fill="#FEF9E6"/>
<path d="M248 697.5C248 706.06 254.94 713 263.5 713C272.06 713 279 706.06 279 697.5C279 688.94 272.06 682 263.5 682C254.94 682 248 688.94 248 697.5Z" fill="#FEF9E6"/>
<path d="M279 697.5C279 706.06 285.94 713 294.5 713C303.06 713 310 706.06 310 697.5C310 688.94 303.06 682 294.5 682C285.94 682 279 688.94 279 697.5Z" fill="#FEF9E6"/>
<path d="M372 697.5C372 706.06 378.94 713 387.5 713C396.06 713 403 706.06 403 697.5C403 688.94 396.06 682 387.5 682C378.94 682 372 688.94 372 697.5Z" fill="#FEF9E6"/>
<path d="M403 697.5C403 706.06 409.94 713 418.5 713C427.06 713 434 706.06 434 697.5C434 688.94 427.06 682 418.5 682C409.94 682 403 688.94 403 697.5Z" fill="#FEF9E6"/>
<path d="M496 697.5C496 706.06 502.94 713 511.5 713C520.06 713 527 706.06 527 697.5C527 688.94 520.06 682 511.5 682C502.94 682 496 688.94 496 697.5Z" fill="#FEF9E6"/>
<path d="M527 697.5C527 706.06 533.94 713 542.5 713C551.06 713 558 706.06 558 697.5C558 688.94 551.06 682 542.5 682C533.94 682 527 688.94 527 697.5Z" fill="#FEF9E6"/>
<path d="M620 697.5C620 706.06 626.94 713 635.5 713C644.06 713 651 706.06 651 697.5C651 688.94 644.06 682 635.5 682C626.94 682 620 688.94 620 697.5Z" fill="#FEF9E6"/>
<path d="M651 697.5C651 706.06 657.94 713 666.5 713C675.06 713 682 706.06 682 697.5C682 688.94 675.06 682 666.5 682C657.94 682 651 688.94 651 697.5Z" fill="#FEF9E6"/>
<path d="M682 697.5C682 706.06 688.94 713 697.5 713C706.06 713 713 706.06 713 697.5C713 688.94 706.06 682 697.5 682C688.94 682 682 688.94 682 697.5Z" fill="#FEF9E6"/>
<path d="M837 697.5C837 706.06 843.94 713 852.5 713C861.06 713 868 706.06 868 697.5C868 688.94 861.06 682 852.5 682C843.94 682 837 688.94 837 697.5Z" fill="#FEF9E6"/>
<path d="M868 697.5C868 706.06 874.94 713 883.5 713C892.06 713 899 706.06 899 697.5C899 688.94 892.06 682 883.5 682C874.94 682 868 688.94 868 697.5Z" fill="#FEF9E6"/>
<path d="M899 697.5C899 706.06 905.94 713 914.5 713C923.06 713 930 706.06 930 697.5C930 688.94 923.06 682 914.5 682C905.94 682 899 688.94 899 697.5Z" fill="#FEF9E6"/>
<path d="M930 697.5C930 706.06 936.94 713 945.5 713C954.06 713 961 706.06 961 697.5C961 688.94 954.06 682 945.5 682C936.94 682 930 688.94 930 697.5Z" fill="#FEF9E6"/>
<path d="M0 728.5C0 737.06 6.93959 744 15.5 744C24.0604 744 31 737.06 31 728.5C31 719.94 24.0604 713 15.5 713C6.93959 713 0 719.94 0 728.5Z" fill="#FEF9E6"/>
<path d="M93 728.5C93 737.06 99.9396 744 108.5 744C117.06 744 124 737.06 124 728.5C124 719.94 117.06 713 108.5 713C99.9396 713 93 719.94 93 728.5Z" fill="#FEF9E6"/>
<path d="M155 728.5C155 737.06 161.94 744 170.5 744C179.06 744 186 737.06 186 728.5C186 719.94 179.06 713 170.5 713C161.94 713 155 719.94 155 728.5Z" fill="#FEF9E6"/>
<path d="M248 728.5C248 737.06 254.94 744 263.5 744C272.06 744 279 737.06 279 728.5C279 719.94 272.06 713 263.5 713C254.94 713 248 719.94 248 728.5Z" fill="#FEF9E6"/>
<path d="M310 728.5C310 737.06 316.94 744 325.5 744C334.06 744 341 737.06 341 728.5C341 719.94 334.06 713 325.5 713C316.94 713 310 719.94 310 728.5Z" fill="#FEF9E6"/>
<path d="M527 728.5C527 737.06 533.94 744 542.5 744C551.06 744 558 737.06 558 728.5C558 719.94 551.06 713 542.5 713C533.94 713 527 719.94 527 728.5Z" fill="#FEF9E6"/>
<path d="M589 728.5C589 737.06 595.94 744 604.5 744C613.06 744 620 737.06 620 728.5C620 719.94 613.06 713 604.5 713C595.94 713 589 719.94 589 728.5Z" fill="#FEF9E6"/>
<path d="M620 728.5C620 737.06 626.94 744 635.5 744C644.06 744 651 737.06 651 728.5C651 719.94 644.06 713 635.5 713C626.94 713 620 719.94 620 728.5Z" fill="#FEF9E6"/>
<path d="M651 728.5C651 737.06 657.94 744 666.5 744C675.06 744 682 737.06 682 728.5C682 719.94 675.06 713 666.5 713C657.94 713 651 719.94 651 728.5Z" fill="#FEF9E6"/>
<path d="M744 728.5C744 737.06 750.94 744 759.5 744C768.06 744 775 737.06 775 728.5C775 719.94 768.06 713 759.5 713C750.94 713 744 719.94 744 728.5Z" fill="#FEF9E6"/>
<path d="M868 728.5C868 737.06 874.94 744 883.5 744C892.06 744 899 737.06 899 728.5C899 719.94 892.06 713 883.5 713C874.94 713 868 719.94 868 728.5Z" fill="#FEF9E6"/>
<path d="M930 728.5C930 737.06 936.94 744 945.5 744C954.06 744 961 737.06 961 728.5C961 719.94 954.06 713 945.5 713C936.94 713 930 719.94 930 728.5Z" fill="#FEF9E6"/>
<path d="M961 728.5C961 737.06 967.94 744 976.5 744C985.06 744 992 737.06 992 728.5C992 719.94 985.06 713 976.5 713C967.94 713 961 719.94 961 728.5Z" fill="#FEF9E6"/>
<path d="M0 759.5C0 768.06 6.93959 775 15.5 775C24.0604 775 31 768.06 31 759.5C31 750.94 24.0604 744 15.5 744C6.93959 744 0 750.94 0 759.5Z" fill="#FEF9E6"/>
<path d="M62 759.5C62 768.06 68.9396 775 77.5 775C86.0604 775 93 768.06 93 759.5C93 750.94 86.0604 744 77.5 744C68.9396 744 62 750.94 62 759.5Z" fill="#FEF9E6"/>
<path d="M93 759.5C93 768.06 99.9396 775 108.5 775C117.06 775 124 768.06 124 759.5C124 750.94 117.06 744 108.5 744C99.9396 744 93 750.94 93 759.5Z" fill="#FEF9E6"/>
<path d="M124 759.5C124 768.06 130.94 775 139.5 775C148.06 775 155 768.06 155 759.5C155 750.94 148.06 744 139.5 744C130.94 744 124 750.94 124 759.5Z" fill="#FEF9E6"/>
<path d="M155 759.5C155 768.06 161.94 775 170.5 775C179.06 775 186 768.06 186 759.5C186 750.94 179.06 744 170.5 744C161.94 744 155 750.94 155 759.5Z" fill="#FEF9E6"/>
<path d="M186 759.5C186 768.06 192.94 775 201.5 775C210.06 775 217 768.06 217 759.5C217 750.94 210.06 744 201.5 744C192.94 744 186 750.94 186 759.5Z" fill="#FEF9E6"/>
<path d="M248 759.5C248 768.06 254.94 775 263.5 775C272.06 775 279 768.06 279 759.5C279 750.94 272.06 744 263.5 744C254.94 744 248 750.94 248 759.5Z" fill="#FEF9E6"/>
<path d="M279 759.5C279 768.06 285.94 775 294.5 775C303.06 775 310 768.06 310 759.5C310 750.94 303.06 744 294.5 744C285.94 744 279 750.94 279 759.5Z" fill="#FEF9E6"/>
<path d="M310 759.5C310 768.06 316.94 775 325.5 775C334.06 775 341 768.06 341 759.5C341 750.94 334.06 744 325.5 744C316.94 744 310 750.94 310 759.5Z" fill="#FEF9E6"/>
<path d="M434 759.5C434 768.06 440.94 775 449.5 775C458.06 775 465 768.06 465 759.5C465 750.94 458.06 744 449.5 744C440.94 744 434 750.94 434 759.5Z" fill="#FEF9E6"/>
<path d="M465 759.5C465 768.06 471.94 775 480.5 775C489.06 775 496 768.06 496 759.5C496 750.94 489.06 744 480.5 744C471.94 744 465 750.94 465 759.5Z" fill="#FEF9E6"/>
<path d="M620 759.5C620 768.06 626.94 775 635.5 775C644.06 775 651 768.06 651 759.5C651 750.94 644.06 744 635.5 744C626.94 744 620 750.94 620 759.5Z" fill="#FEF9E6"/>
<path d="M651 759.5C651 768.06 657.94 775 666.5 775C675.06 775 682 768.06 682 759.5C682 750.94 675.06 744 666.5 744C657.94 744 651 750.94 651 759.5Z" fill="#FEF9E6"/>
<path d="M744 759.5C744 768.06 750.94 775 759.5 775C768.06 775 775 768.06 775 759.5C775 750.94 768.06 744 759.5 744C750.94 744 744 750.94 744 759.5Z" fill="#FEF9E6"/>
<path d="M775 759.5C775 768.06 781.94 775 790.5 775C799.06 775 806 768.06 806 759.5C806 750.94 799.06 744 790.5 744C781.94 744 775 750.94 775 759.5Z" fill="#FEF9E6"/>
<path d="M806 759.5C806 768.06 812.94 775 821.5 775C830.06 775 837 768.06 837 759.5C837 750.94 830.06 744 821.5 744C812.94 744 806 750.94 806 759.5Z" fill="#FEF9E6"/>
<path d="M837 759.5C837 768.06 843.94 775 852.5 775C861.06 775 868 768.06 868 759.5C868 750.94 861.06 744 852.5 744C843.94 744 837 750.94 837 759.5Z" fill="#FEF9E6"/>
<path d="M868 759.5C868 768.06 874.94 775 883.5 775C892.06 775 899 768.06 899 759.5C899 750.94 892.06 744 883.5 744C874.94 744 868 750.94 868 759.5Z" fill="#FEF9E6"/>
<path d="M248 790.5C248 799.06 254.94 806 263.5 806C272.06 806 279 799.06 279 790.5C279 781.94 272.06 775 263.5 775C254.94 775 248 781.94 248 790.5Z" fill="#FEF9E6"/>
<path d="M279 790.5C279 799.06 285.94 806 294.5 806C303.06 806 310 799.06 310 790.5C310 781.94 303.06 775 294.5 775C285.94 775 279 781.94 279 790.5Z" fill="#FEF9E6"/>
<path d="M310 790.5C310 799.06 316.94 806 325.5 806C334.06 806 341 799.06 341 790.5C341 781.94 334.06 775 325.5 775C316.94 775 310 781.94 310 790.5Z" fill="#FEF9E6"/>
<path d="M372 790.5C372 799.06 378.94 806 387.5 806C396.06 806 403 799.06 403 790.5C403 781.94 396.06 775 387.5 775C378.94 775 372 781.94 372 790.5Z" fill="#FEF9E6"/>
<path d="M589 790.5C589 799.06 595.94 806 604.5 806C613.06 806 620 799.06 620 790.5C620 781.94 613.06 775 604.5 775C595.94 775 589 781.94 589 790.5Z" fill="#FEF9E6"/>
<path d="M620 790.5C620 799.06 626.94 806 635.5 806C644.06 806 651 799.06 651 790.5C651 781.94 644.06 775 635.5 775C626.94 775 620 781.94 620 790.5Z" fill="#FEF9E6"/>
<path d="M713 790.5C713 799.06 719.94 806 728.5 806C737.06 806 744 799.06 744 790.5C744 781.94 737.06 775 728.5 775C719.94 775 713 781.94 713 790.5Z" fill="#FEF9E6"/>
<path d="M744 790.5C744 799.06 750.94 806 759.5 806C768.06 806 775 799.06 775 790.5C775 781.94 768.06 775 759.5 775C750.94 775 744 781.94 744 790.5Z" fill="#FEF9E6"/>
<path d="M868 790.5C868 799.06 874.94 806 883.5 806C892.06 806 899 799.06 899 790.5C899 781.94 892.06 775 883.5 775C874.94 775 868 781.94 868 790.5Z" fill="#FEF9E6"/>
<path d="M961 790.5C961 799.06 967.94 806 976.5 806C985.06 806 992 799.06 992 790.5C992 781.94 985.06 775 976.5 775C967.94 775 961 781.94 961 790.5Z" fill="#FEF9E6"/>
<path d="M992 790.5C992 799.06 998.94 806 1007.5 806C1016.06 806 1023 799.06 1023 790.5C1023 781.94 1016.06 775 1007.5 775C998.94 775 992 781.94 992 790.5Z" fill="#FEF9E6"/>
<path d="M372 821.5C372 830.06 378.94 837 387.5 837C396.06 837 403 830.06 403 821.5C403 812.94 396.06 806 387.5 806C378.94 806 372 812.94 372 821.5Z" fill="#FEF9E6"/>
<path d="M403 821.5C403 830.06 409.94 837 418.5 837C427.06 837 434 830.06 434 821.5C434 812.94 427.06 806 418.5 806C409.94 806 403 812.94 403 821.5Z" fill="#FEF9E6"/>
<path d="M434 821.5C434 830.06 440.94 837 449.5 837C458.06 837 465 830.06 465 821.5C465 812.94 458.06 806 449.5 806C440.94 806 434 812.94 434 821.5Z" fill="#FEF9E6"/>
<path d="M465 821.5C465 830.06 471.94 837 480.5 837C489.06 837 496 830.06 496 821.5C496 812.94 489.06 806 480.5 806C471.94 806 465 812.94 465 821.5Z" fill="#FEF9E6"/>
<path d="M496 821.5C496 830.06 502.94 837 511.5 837C520.06 837 527 830.06 527 821.5C527 812.94 520.06 806 511.5 806C502.94 806 496 812.94 496 821.5Z" fill="#FEF9E6"/>
<path d="M558 821.5C558 830.06 564.94 837 573.5 837C582.06 837 589 830.06 589 821.5C589 812.94 582.06 806 573.5 806C564.94 806 558 812.94 558 821.5Z" fill="#FEF9E6"/>
<path d="M682 821.5C682 830.06 688.94 837 697.5 837C706.06 837 713 830.06 713 821.5C713 812.94 706.06 806 697.5 806C688.94 806 682 812.94 682 821.5Z" fill="#FEF9E6"/>
<path d="M713 821.5C713 830.06 719.94 837 728.5 837C737.06 837 744 830.06 744 821.5C744 812.94 737.06 806 728.5 806C719.94 806 713 812.94 713 821.5Z" fill="#FEF9E6"/>
<path d="M744 821.5C744 830.06 750.94 837 759.5 837C768.06 837 775 830.06 775 821.5C775 812.94 768.06 806 759.5 806C750.94 806 744 812.94 744 821.5Z" fill="#FEF9E6"/>
<path d="M806 821.5C806 830.06 812.94 837 821.5 837C830.06 837 837 830.06 837 821.5C837 812.94 830.06 806 821.5 806C812.94 806 806 812.94 806 821.5Z" fill="#FEF9E6"/>
<path d="M868 821.5C868 830.06 874.94 837 883.5 837C892.06 837 899 830.06 899 821.5C899 812.94 892.06 806 883.5 806C874.94 806 868 812.94 868 821.5Z" fill="#FEF9E6"/>
<path d="M899 821.5C899 830.06 905.94 837 914.5 837C923.06 837 930 830.06 930 821.5C930 812.94 923.06 806 914.5 806C905.94 806 899 812.94 899 821.5Z" fill="#FEF9E6"/>
<path d="M930 821.5C930 830.06 936.94 837 945.5 837C954.06 837 961 830.06 961 821.5C961 812.94 954.06 806 945.5 806C936.94 806 930 812.94 930 821.5Z" fill="#FEF9E6"/>
<path d="M961 821.5C961 830.06 967.94 837 976.5 837C985.06 837 992 830.06 992 821.5C992 812.94 985.06 806 976.5 806C967.94 806 961 812.94 961 821.5Z" fill="#FEF9E6"/>
<path d="M279 852.5C279 861.06 285.94 868 294.5 868C303.06 868 310 861.06 310 852.5C310 843.94 303.06 837 294.5 837C285.94 837 279 843.94 279 852.5Z" fill="#FEF9E6"/>
<path d="M310 852.5C310 861.06 316.94 868 325.5 868C334.06 868 341 861.06 341 852.5C341 843.94 334.06 837 325.5 837C316.94 837 310 843.94 310 852.5Z" fill="#FEF9E6"/>
<path d="M372 852.5C372 861.06 378.94 868 387.5 868C396.06 868 403 861.06 403 852.5C403 843.94 396.06 837 387.5 837C378.94 837 372 843.94 372 852.5Z" fill="#FEF9E6"/>
<path d="M403 852.5C403 861.06 409.94 868 418.5 868C427.06 868 434 861.06 434 852.5C434 843.94 427.06 837 418.5 837C409.94 837 403 843.94 403 852.5Z" fill="#FEF9E6"/>
<path d="M496 852.5C496 861.06 502.94 868 511.5 868C520.06 868 527 861.06 527 852.5C527 843.94 520.06 837 511.5 837C502.94 837 496 843.94 496 852.5Z" fill="#FEF9E6"/>
<path d="M744 852.5C744 861.06 750.94 868 759.5 868C768.06 868 775 861.06 775 852.5C775 843.94 768.06 837 759.5 837C750.94 837 744 843.94 744 852.5Z" fill="#FEF9E6"/>
<path d="M868 852.5C868 861.06 874.94 868 883.5 868C892.06 868 899 861.06 899 852.5C899 843.94 892.06 837 883.5 837C874.94 837 868 843.94 868 852.5Z" fill="#FEF9E6"/>
<path d="M930 852.5C930 861.06 936.94 868 945.5 868C954.06 868 961 861.06 961 852.5C961 843.94 954.06 837 945.5 837C936.94 837 930 843.94 930 852.5Z" fill="#FEF9E6"/>
<path d="M961 852.5C961 861.06 967.94 868 976.5 868C985.06 868 992 861.06 992 852.5C992 843.94 985.06 837 976.5 837C967.94 837 961 843.94 961 852.5Z" fill="#FEF9E6"/>
<path d="M992 852.5C992 861.06 998.94 868 1007.5 868C1016.06 868 1023 861.06 1023 852.5C1023 843.94 1016.06 837 1007.5 837C998.94 837 992 843.94 992 852.5Z" fill="#FEF9E6"/>
<path d="M248 883.5C248 892.06 254.94 899 263.5 899C272.06 899 279 892.06 279 883.5C279 874.94 272.06 868 263.5 868C254.94 868 248 874.94 248 883.5Z" fill="#FEF9E6"/>
<path d="M279 883.5C279 892.06 285.94 899 294.5 899C303.06 899 310 892.06 310 883.5C310 874.94 303.06 868 294.5 868C285.94 868 279 874.94 279 883.5Z" fill="#FEF9E6"/>
<path d="M310 883.5C310 892.06 316.94 899 325.5 899C334.06 899 341 892.06 341 883.5C341 874.94 334.06 868 325.5 868C316.94 868 310 874.94 310 883.5Z" fill="#FEF9E6"/>
<path d="M341 883.5C341 892.06 347.94 899 356.5 899C365.06 899 372 892.06 372 883.5C372 874.94 365.06 868 356.5 868C347.94 868 341 874.94 341 883.5Z" fill="#FEF9E6"/>
<path d="M403 883.5C403 892.06 409.94 899 418.5 899C427.06 899 434 892.06 434 883.5C434 874.94 427.06 868 418.5 868C409.94 868 403 874.94 403 883.5Z" fill="#FEF9E6"/>
<path d="M434 883.5C434 892.06 440.94 899 449.5 899C458.06 899 465 892.06 465 883.5C465 874.94 458.06 868 449.5 868C440.94 868 434 874.94 434 883.5Z" fill="#FEF9E6"/>
<path d="M465 883.5C465 892.06 471.94 899 480.5 899C489.06 899 496 892.06 496 883.5C496 874.94 489.06 868 480.5 868C471.94 868 465 874.94 465 883.5Z" fill="#FEF9E6"/>
<path d="M496 883.5C496 892.06 502.94 899 511.5 899C520.06 899 527 892.06 527 883.5C527 874.94 520.06 868 511.5 868C502.94 868 496 874.94 496 883.5Z" fill="#FEF9E6"/>
<path d="M589 883.5C589 892.06 595.94 899 604.5 899C613.06 899 620 892.06 620 883.5C620 874.94 613.06 868 604.5 868C595.94 868 589 874.94 589 883.5Z" fill="#FEF9E6"/>
<path d="M651 883.5C651 892.06 657.94 899 666.5 899C675.06 899 682 892.06 682 883.5C682 874.94 675.06 868 666.5 868C657.94 868 651 874.94 651 883.5Z" fill="#FEF9E6"/>
<path d="M682 883.5C682 892.06 688.94 899 697.5 899C706.06 899 713 892.06 713 883.5C713 874.94 706.06 868 697.5 868C688.94 868 682 874.94 682 883.5Z" fill="#FEF9E6"/>
<path d="M744 883.5C744 892.06 750.94 899 759.5 899C768.06 899 775 892.06 775 883.5C775 874.94 768.06 868 759.5 868C750.94 868 744 874.94 744 883.5Z" fill="#FEF9E6"/>
<path d="M775 883.5C775 892.06 781.94 899 790.5 899C799.06 899 806 892.06 806 883.5C806 874.94 799.06 868 790.5 868C781.94 868 775 874.94 775 883.5Z" fill="#FEF9E6"/>
<path d="M806 883.5C806 892.06 812.94 899 821.5 899C830.06 899 837 892.06 837 883.5C837 874.94 830.06 868 821.5 868C812.94 868 806 874.94 806 883.5Z" fill="#FEF9E6"/>
<path d="M837 883.5C837 892.06 843.94 899 852.5 899C861.06 899 868 892.06 868 883.5C868 874.94 861.06 868 852.5 868C843.94 868 837 874.94 837 883.5Z" fill="#FEF9E6"/>
<path d="M868 883.5C868 892.06 874.94 899 883.5 899C892.06 899 899 892.06 899 883.5C899 874.94 892.06 868 883.5 868C874.94 868 868 874.94 868 883.5Z" fill="#FEF9E6"/>
<path d="M899 883.5C899 892.06 905.94 899 914.5 899C923.06 899 930 892.06 930 883.5C930 874.94 923.06 868 914.5 868C905.94 868 899 874.94 899 883.5Z" fill="#FEF9E6"/>
<path d="M961 883.5C961 892.06 967.94 899 976.5 899C985.06 899 992 892.06 992 883.5C992 874.94 985.06 868 976.5 868C967.94 868 961 874.94 961 883.5Z" fill="#FEF9E6"/>
<path d="M992 883.5C992 892.06 998.94 899 1007.5 899C1016.06 899 1023 892.06 1023 883.5C1023 874.94 1016.06 868 1007.5 868C998.94 868 992 874.94 992 883.5Z" fill="#FEF9E6"/>
<path d="M248 914.5C248 923.06 254.94 930 263.5 930C272.06 930 279 923.06 279 914.5C279 905.94 272.06 899 263.5 899C254.94 899 248 905.94 248 914.5Z" fill="#FEF9E6"/>
<path d="M341 914.5C341 923.06 347.94 930 356.5 930C365.06 930 372 923.06 372 914.5C372 905.94 365.06 899 356.5 899C347.94 899 341 905.94 341 914.5Z" fill="#FEF9E6"/>
<path d="M372 914.5C372 923.06 378.94 930 387.5 930C396.06 930 403 923.06 403 914.5C403 905.94 396.06 899 387.5 899C378.94 899 372 905.94 372 914.5Z" fill="#FEF9E6"/>
<path d="M496 914.5C496 923.06 502.94 930 511.5 930C520.06 930 527 923.06 527 914.5C527 905.94 520.06 899 511.5 899C502.94 899 496 905.94 496 914.5Z" fill="#FEF9E6"/>
<path d="M527 914.5C527 923.06 533.94 930 542.5 930C551.06 930 558 923.06 558 914.5C558 905.94 551.06 899 542.5 899C533.94 899 527 905.94 527 914.5Z" fill="#FEF9E6"/>
<path d="M589 914.5C589 923.06 595.94 930 604.5 930C613.06 930 620 923.06 620 914.5C620 905.94 613.06 899 604.5 899C595.94 899 589 905.94 589 914.5Z" fill="#FEF9E6"/>
<path d="M620 914.5C620 923.06 626.94 930 635.5 930C644.06 930 651 923.06 651 914.5C651 905.94 644.06 899 635.5 899C626.94 899 620 905.94 620 914.5Z" fill="#FEF9E6"/>
<path d="M744 914.5C744 923.06 750.94 930 759.5 930C768.06 930 775 923.06 775 914.5C775 905.94 768.06 899 759.5 899C750.94 899 744 905.94 744 914.5Z" fill="#FEF9E6"/>
<path d="M775 914.5C775 923.06 781.94 930 790.5 930C799.06 930 806 923.06 806 914.5C806 905.94 799.06 899 790.5 899C781.94 899 775 905.94 775 914.5Z" fill="#FEF9E6"/>
<path d="M868 914.5C868 923.06 874.94 930 883.5 930C892.06 930 899 923.06 899 914.5C899 905.94 892.06 899 883.5 899C874.94 899 868 905.94 868 914.5Z" fill="#FEF9E6"/>
<path d="M899 914.5C899 923.06 905.94 930 914.5 930C923.06 930 930 923.06 930 914.5C930 905.94 923.06 899 914.5 899C905.94 899 899 905.94 899 914.5Z" fill="#FEF9E6"/>
<path d="M961 914.5C961 923.06 967.94 930 976.5 930C985.06 930 992 923.06 992 914.5C992 905.94 985.06 899 976.5 899C967.94 899 961 905.94 961 914.5Z" fill="#FEF9E6"/>
<path d="M248 945.5C248 954.06 254.94 961 263.5 961C272.06 961 279 954.06 279 945.5C279 936.94 272.06 930 263.5 930C254.94 930 248 936.94 248 945.5Z" fill="#FEF9E6"/>
<path d="M279 945.5C279 954.06 285.94 961 294.5 961C303.06 961 310 954.06 310 945.5C310 936.94 303.06 930 294.5 930C285.94 930 279 936.94 279 945.5Z" fill="#FEF9E6"/>
<path d="M372 945.5C372 954.06 378.94 961 387.5 961C396.06 961 403 954.06 403 945.5C403 936.94 396.06 930 387.5 930C378.94 930 372 936.94 372 945.5Z" fill="#FEF9E6"/>
<path d="M434 945.5C434 954.06 440.94 961 449.5 961C458.06 961 465 954.06 465 945.5C465 936.94 458.06 930 449.5 930C440.94 930 434 936.94 434 945.5Z" fill="#FEF9E6"/>
<path d="M465 945.5C465 954.06 471.94 961 480.5 961C489.06 961 496 954.06 496 945.5C496 936.94 489.06 930 480.5 930C471.94 930 465 936.94 465 945.5Z" fill="#FEF9E6"/>
<path d="M496 945.5C496 954.06 502.94 961 511.5 961C520.06 961 527 954.06 527 945.5C527 936.94 520.06 930 511.5 930C502.94 930 496 936.94 496 945.5Z" fill="#FEF9E6"/>
<path d="M527 945.5C527 954.06 533.94 961 542.5 961C551.06 961 558 954.06 558 945.5C558 936.94 551.06 930 542.5 930C533.94 930 527 936.94 527 945.5Z" fill="#FEF9E6"/>
<path d="M651 945.5C651 954.06 657.94 961 666.5 961C675.06 961 682 954.06 682 945.5C682 936.94 675.06 930 666.5 930C657.94 930 651 936.94 651 945.5Z" fill="#FEF9E6"/>
<path d="M682 945.5C682 954.06 688.94 961 697.5 961C706.06 961 713 954.06 713 945.5C713 936.94 706.06 930 697.5 930C688.94 930 682 936.94 682 945.5Z" fill="#FEF9E6"/>
<path d="M713 945.5C713 954.06 719.94 961 728.5 961C737.06 961 744 954.06 744 945.5C744 936.94 737.06 930 728.5 930C719.94 930 713 936.94 713 945.5Z" fill="#FEF9E6"/>
<path d="M744 945.5C744 954.06 750.94 961 759.5 961C768.06 961 775 954.06 775 945.5C775 936.94 768.06 930 759.5 930C750.94 930 744 936.94 744 945.5Z" fill="#FEF9E6"/>
<path d="M775 945.5C775 954.06 781.94 961 790.5 961C799.06 961 806 954.06 806 945.5C806 936.94 799.06 930 790.5 930C781.94 930 775 936.94 775 945.5Z" fill="#FEF9E6"/>
<path d="M806 945.5C806 954.06 812.94 961 821.5 961C830.06 961 837 954.06 837 945.5C837 936.94 830.06 930 821.5 930C812.94 930 806 936.94 806 945.5Z" fill="#FEF9E6"/>
<path d="M341 976.5C341 985.06 347.94 992 356.5 992C365.06 992 372 985.06 372 976.5C372 967.94 365.06 961 356.5 961C347.94 961 341 967.94 341 976.5Z" fill="#FEF9E6"/>
<path d="M372 976.5C372 985.06 378.94 992 387.5 992C396.06 992 403 985.06 403 976.5C403 967.94 396.06 961 387.5 961C378.94 961 372 967.94 372 976.5Z" fill="#FEF9E6"/>
<path d="M403 976.5C403 985.06 409.94 992 418.5 992C427.06 992 434 985.06 434 976.5C434 967.94 427.06 961 418.5 961C409.94 961 403 967.94 403 976.5Z" fill="#FEF9E6"/>
<path d="M434 976.5C434 985.06 440.94 992 449.5 992C458.06 992 465 985.06 465 976.5C465 967.94 458.06 961 449.5 961C440.94 961 434 967.94 434 976.5Z" fill="#FEF9E6"/>
<path d="M496 976.5C496 985.06 502.94 992 511.5 992C520.06 992 527 985.06 527 976.5C527 967.94 520.06 961 511.5 961C502.94 961 496 967.94 496 976.5Z" fill="#FEF9E6"/>
<path d="M589 976.5C589 985.06 595.94 992 604.5 992C613.06 992 620 985.06 620 976.5C620 967.94 613.06 961 604.5 961C595.94 961 589 967.94 589 976.5Z" fill="#FEF9E6"/>
<path d="M620 976.5C620 985.06 626.94 992 635.5 992C644.06 992 651 985.06 651 976.5C651 967.94 644.06 961 635.5 961C626.94 961 620 967.94 620 976.5Z" fill="#FEF9E6"/>
<path d="M651 976.5C651 985.06 657.94 992 666.5 992C675.06 992 682 985.06 682 976.5C682 967.94 675.06 961 666.5 961C657.94 961 651 967.94 651 976.5Z" fill="#FEF9E6"/>
<path d="M775 976.5C775 985.06 781.94 992 790.5 992C799.06 992 806 985.06 806 976.5C806 967.94 799.06 961 790.5 961C781.94 961 775 967.94 775 976.5Z" fill="#FEF9E6"/>
<path d="M837 976.5C837 985.06 843.94 992 852.5 992C861.06 992 868 985.06 868 976.5C868 967.94 861.06 961 852.5 961C843.94 961 837 967.94 837 976.5Z" fill="#FEF9E6"/>
<path d="M899 976.5C899 985.06 905.94 992 914.5 992C923.06 992 930 985.06 930 976.5C930 967.94 923.06 961 914.5 961C905.94 961 899 967.94 899 976.5Z" fill="#FEF9E6"/>
<path d="M310 1007.5C310 1016.06 316.94 1023 325.5 1023C334.06 1023 341 1016.06 341 1007.5C341 998.94 334.06 992 325.5 992C316.94 992 310 998.94 310 1007.5Z" fill="#FEF9E6"/>
<path d="M341 1007.5C341 1016.06 347.94 1023 356.5 1023C365.06 1023 372 1016.06 372 1007.5C372 998.94 365.06 992 356.5 992C347.94 992 341 998.94 341 1007.5Z" fill="#FEF9E6"/>
<path d="M372 1007.5C372 1016.06 378.94 1023 387.5 1023C396.06 1023 403 1016.06 403 1007.5C403 998.94 396.06 992 387.5 992C378.94 992 372 998.94 372 1007.5Z" fill="#FEF9E6"/>
<path d="M465 1007.5C465 1016.06 471.94 1023 480.5 1023C489.06 1023 496 1016.06 496 1007.5C496 998.94 489.06 992 480.5 992C471.94 992 465 998.94 465 1007.5Z" fill="#FEF9E6"/>
<path d="M527 1007.5C527 1016.06 533.94 1023 542.5 1023C551.06 1023 558 1016.06 558 1007.5C558 998.94 551.06 992 542.5 992C533.94 992 527 998.94 527 1007.5Z" fill="#FEF9E6"/>
<path d="M558 1007.5C558 1016.06 564.94 1023 573.5 1023C582.06 1023 589 1016.06 589 1007.5C589 998.94 582.06 992 573.5 992C564.94 992 558 998.94 558 1007.5Z" fill="#FEF9E6"/>
<path d="M620 1007.5C620 1016.06 626.94 1023 635.5 1023C644.06 1023 651 1016.06 651 1007.5C651 998.94 644.06 992 635.5 992C626.94 992 620 998.94 620 1007.5Z" fill="#FEF9E6"/>
<path d="M651 1007.5C651 1016.06 657.94 1023 666.5 1023C675.06 1023 682 1016.06 682 1007.5C682 998.94 675.06 992 666.5 992C657.94 992 651 998.94 651 1007.5Z" fill="#FEF9E6"/>
<path d="M744 1007.5C744 1016.06 750.94 1023 759.5 1023C768.06 1023 775 1016.06 775 1007.5C775 998.94 768.06 992 759.5 992C750.94 992 744 998.94 744 1007.5Z" fill="#FEF9E6"/>
<path d="M775 1007.5C775 1016.06 781.94 1023 790.5 1023C799.06 1023 806 1016.06 806 1007.5C806 998.94 799.06 992 790.5 992C781.94 992 775 998.94 775 1007.5Z" fill="#FEF9E6"/>
<path d="M930 1007.5C930 1016.06 936.94 1023 945.5 1023C954.06 1023 961 1016.06 961 1007.5C961 998.94 954.06 992 945.5 992C936.94 992 930 998.94 930 1007.5Z" fill="#FEF9E6"/>
<path d="M961 1007.5C961 1016.06 967.94 1023 976.5 1023C985.06 1023 992 1016.06 992 1007.5C992 998.94 985.06 992 976.5 992C967.94 992 961 998.94 961 1007.5Z" fill="#FEF9E6"/>
<path d="M142.914 0.015625H74.086C40.5421 0.015625 12.1238 22.1778 3.038 52.4689C2.09839 55.6023 1.36493 58.8226 0.85498 62.1145C0.29295 65.7471 0 69.4665 0 73.2531V143.715C0 184.118 33.2444 216.974 74.086 216.974L108.5 216.981L142.914 216.972C183.753 216.972 217 184.116 217 143.713V73.2531C217 32.8694 183.756 0.015625 142.914 0.015625ZM184.45 143.715C184.45 166.162 165.818 184.424 142.905 184.424L108.5 184.431L74.0947 184.422C51.1816 184.422 32.55 166.159 32.55 143.715V73.2531C32.55 66.2419 34.3685 59.6407 37.5692 53.8729C40.6506 48.3242 45.0101 43.5523 50.2594 39.9393C57.0081 35.2933 65.2259 32.5656 74.0838 32.5656H142.914C165.818 32.5656 184.45 50.8175 184.45 73.2531V143.715Z" fill="#FDE69B"/>
<path d="M948.914 0.015625H880.086C846.542 0.015625 818.124 22.1778 809.038 52.4689C808.098 55.6023 807.365 58.8226 806.855 62.1145C806.293 65.7471 806 69.4665 806 73.2531V143.715C806 184.118 839.244 216.974 880.086 216.974L914.5 216.981L948.914 216.972C989.753 216.972 1023 184.116 1023 143.713V73.2531C1023 32.8694 989.756 0.015625 948.914 0.015625ZM990.45 143.715C990.45 166.162 971.818 184.424 948.905 184.424L914.5 184.431L880.095 184.422C857.182 184.422 838.55 166.159 838.55 143.715V73.2531C838.55 66.2419 840.368 59.6407 843.569 53.8729C846.651 48.3242 851.01 43.5523 856.259 39.9393C863.008 35.2933 871.226 32.5656 880.084 32.5656H948.914C971.818 32.5656 990.45 50.8175 990.45 73.2531V143.715Z" fill="#FDE69B"/>
<path d="M142.914 806.016H74.086C40.5421 806.016 12.1238 828.178 3.038 858.469C2.09839 861.602 1.36493 864.823 0.85498 868.115C0.29295 871.747 0 875.466 0 879.253V949.715C0 990.118 33.2444 1022.97 74.086 1022.97L108.5 1022.98L142.914 1022.97C183.753 1022.97 217 990.116 217 949.713V879.253C217 838.869 183.756 806.016 142.914 806.016ZM184.45 949.715C184.45 972.162 165.818 990.424 142.905 990.424L108.5 990.431L74.0947 990.422C51.1816 990.422 32.55 972.159 32.55 949.715V879.253C32.55 872.242 34.3685 865.641 37.5692 859.873C40.6506 854.324 45.0101 849.552 50.2594 845.939C57.0081 841.293 65.2259 838.566 74.0838 838.566H142.914C165.818 838.566 184.45 856.817 184.45 879.253V949.715Z" fill="#FDE69B"/>
<path d="M87.4363 155C73.4026 155 61.9868 143.81 61.9868 130.069V86.9184C61.9868 82.6255 63.1028 78.5856 65.0567 75.0507C66.9437 71.6488 69.6147 68.7248 72.8315 66.5189C76.9635 63.6749 82.0004 62 87.4223 62H129.576C143.597 62 155.013 73.1767 155.013 86.9175V130.068C155.013 143.808 143.598 154.999 129.576 154.999H108.5L87.4363 155Z" fill="#FDE69B"/>
<path d="M893.437 155C879.403 155 867.987 143.81 867.987 130.069V86.9184C867.987 82.6255 869.103 78.5856 871.057 75.0507C872.944 71.6488 875.615 68.7248 878.832 66.5189C882.964 63.6749 888.001 62 893.423 62H935.577C949.597 62 961.013 73.1767 961.013 86.9175V130.068C961.013 143.808 949.598 154.999 935.577 154.999H914.5L893.437 155Z" fill="#FDE69B"/>
<path d="M87.4363 961C73.4026 961 61.9868 949.81 61.9868 936.069V892.918C61.9868 888.626 63.1028 884.586 65.0567 881.051C66.9437 877.649 69.6147 874.725 72.8315 872.519C76.9635 869.675 82.0004 868 87.4223 868H129.576C143.597 868 155.013 879.177 155.013 892.917V936.068C155.013 949.808 143.598 960.999 129.576 960.999H108.5L87.4363 961Z" fill="#FDE69B"/>
<path d="M564.827 534.763C561.942 533.281 547.571 526.241 544.899 525.288C542.226 524.283 540.267 523.806 538.335 526.77C536.377 529.708 530.819 536.245 529.073 538.23C527.379 540.188 525.659 540.426 522.774 538.971C505.625 530.396 494.377 523.674 483.077 504.275C480.086 499.114 486.067 499.485 491.651 488.343C492.604 486.385 492.128 484.718 491.387 483.236C490.646 481.754 484.823 467.41 482.389 461.561C480.033 455.871 477.598 456.665 475.825 456.559C474.132 456.453 472.2 456.453 470.241 456.453C468.283 456.453 465.133 457.194 462.461 460.079C459.788 463.016 452.245 470.083 452.245 484.426C452.245 498.77 462.699 512.664 464.128 514.623C465.61 516.581 484.691 546.01 513.988 558.687C532.513 566.679 539.764 567.367 549.027 565.991C554.664 565.144 566.282 558.951 568.69 552.097C571.099 545.269 571.099 539.42 570.384 538.203C569.67 536.906 567.711 536.165 564.827 534.763Z" fill="#4CAF50"/>
<path d="M620.853 465.557C614.872 451.345 606.297 438.589 595.367 427.633C584.437 416.703 571.681 408.102 557.443 402.147C542.887 396.034 527.432 392.938 511.5 392.938H510.971C494.933 393.017 479.398 396.193 464.79 402.438C450.684 408.472 438.034 417.047 427.21 427.977C416.385 438.907 407.89 451.61 402.015 465.769C395.928 480.43 392.858 496.018 392.938 512.056C393.017 530.422 397.41 548.657 405.641 564.959V605.186C405.641 611.908 411.092 617.359 417.814 617.359H458.068C474.37 625.59 492.604 629.983 510.971 630.062H511.527C527.379 630.062 542.755 626.993 557.231 620.985C571.39 615.083 584.12 606.615 595.023 595.791C605.953 584.966 614.554 572.316 620.562 558.21C626.807 543.602 629.983 528.067 630.063 512.029C630.142 495.912 627.019 480.271 620.853 465.557ZM580.864 581.473C562.313 599.84 537.7 609.949 511.5 609.949H511.05C495.092 609.87 479.239 605.9 465.24 598.437L463.016 597.246H425.754V559.984L424.563 557.761C417.1 543.761 413.13 527.908 413.051 511.95C412.945 485.564 423.028 460.793 441.527 442.136C459.999 423.478 484.691 413.157 511.077 413.051H511.527C524.759 413.051 537.594 415.618 549.689 420.699C561.492 425.648 572.078 432.767 581.182 441.871C590.259 450.948 597.405 461.561 602.354 473.364C607.488 485.591 610.055 498.559 610.002 511.95C609.843 538.309 599.496 563.001 580.864 581.473Z" fill="#4CAF50"/>
</g>
<defs>
<clipPath id="clip0_810_2029">
<rect width="1023" height="1023" fill="white"/>
</clipPath>
</defs>
</svg>
