<svg width="668" height="467" viewBox="0 0 668 467" fill="none" xmlns="http://www.w3.org/2000/svg">
<g clip-path="url(#clip0_798_640)">
<path d="M120.6 66.6667L312.167 237.333C318.271 242.769 326.16 245.772 334.333 245.772C342.507 245.772 350.396 242.769 356.5 237.333L548.1 66.6667H120.6ZM600.667 109.1L400.867 287.133C382.549 303.458 358.87 312.479 334.333 312.479C309.797 312.479 286.117 303.458 267.8 287.133L67.3334 108.467V400H600.667V109.1ZM67.3334 0H600.667C618.348 0 635.305 7.02379 647.807 19.5262C660.31 32.0286 667.333 48.9856 667.333 66.6667V400C667.333 417.681 660.31 434.638 647.807 447.14C635.305 459.643 618.348 466.667 600.667 466.667H67.3334C49.6523 466.667 32.6954 459.643 20.193 447.14C7.69054 434.638 0.666748 417.681 0.666748 400V66.6667C0.666748 48.9856 7.69054 32.0286 20.193 19.5262C32.6954 7.02379 49.6523 0 67.3334 0Z" fill="#FEF9E6"/>
</g>
<defs>
<clipPath id="clip0_798_640">
<rect width="668" height="467.001" fill="white"/>
</clipPath>
</defs>
</svg>
